<?xml version="1.0" standalone="no"?>
<!DOCTYPE svg PUBLIC "-//W3C//DTD SVG 1.1//EN" "http://www.w3.org/Graphics/SVG/1.1/DTD/svg11.dtd" >
<svg xmlns="http://www.w3.org/2000/svg">
<metadata></metadata>
<defs>
<font id="roundhand_blk_btblack" horiz-adv-x="1024" >
<font-face units-per-em="2048" ascent="1556" descent="-492" />
<missing-glyph horiz-adv-x="588" />
<glyph horiz-adv-x="2048" />
<glyph horiz-adv-x="2048" />
<glyph unicode="&#xd;" horiz-adv-x="588" />
<glyph unicode=" "  horiz-adv-x="588" />
<glyph unicode="&#x09;" horiz-adv-x="588" />
<glyph unicode="&#xa0;" horiz-adv-x="588" />
<glyph unicode="!" horiz-adv-x="834" d="M-330 121q0 55 39.5 96t93.5 41h4q58 0 99 -40.5t41 -96.5t-41 -96.5t-99 -40.5q-55 0 -96 41t-41 96zM-111 279q51 87 96.5 197.5t82.5 232.5q12 40 33 112q42 147 63 187q26 49 62 75.5t77 26.5q55 0 95 -38.5t40 -92.5q0 -89 -178 -269q-33 -34 -51 -53 q-98 -99 -171 -194.5t-128 -194.5z" />
<glyph unicode="&#x22;" horiz-adv-x="694" d="M84 1354q0 52 24.5 80t69.5 28q47 0 71.5 -27.5t24.5 -80.5q0 -16 -0.5 -24.5t-1.5 -15.5l-73 -458h-39l-74 459q-1 7 -1.5 15.5t-0.5 23.5zM420 1354q0 51 25.5 79.5t70.5 28.5t70.5 -28t25.5 -78q0 -13 -3 -36q-1 -4 -1 -5l-73 -459h-39l-74 458q-1 8 -1.5 16.5 t-0.5 23.5z" />
<glyph unicode="#" horiz-adv-x="1575" d="M70 428l59 168h301l92 262h-319l61 166h318l155 436h183l-156 -436h268l156 436h182l-156 -436h291l-59 -166h-291l-92 -262h307l-59 -168h-307l-154 -434h-184l155 434h-268l-154 -434h-184l156 434h-301zM608 594h275l94 264h-275z" />
<glyph unicode="$" horiz-adv-x="1176" d="M-324 244q0 100 61 164.5t154 64.5q48 0 82.5 -16.5t57.5 -48.5q-75 -21 -110.5 -68.5t-35.5 -126.5q0 -50 21 -96t59 -80l230 430q-93 96 -124.5 155t-31.5 123q0 147 117.5 238.5t306.5 91.5q16 0 47 -4q12 -1 18 -2l78 148l21 -9l-78 -143q118 -18 182 -73t64 -138 q0 -74 -51 -121t-132 -47q-25 0 -46.5 5t-41.5 16q39 32 57.5 72t18.5 91q0 56 -18 97.5t-52 62.5l-200 -366q135 -140 172 -209t37 -146q0 -136 -133.5 -231.5t-333.5 -95.5q-28 0 -52.5 2t-46.5 6l-67 -129l-27 12l66 121q-122 25 -195.5 94t-73.5 156zM-12 25 q23 -12 43.5 -17.5t40.5 -5.5q93 0 169 76t76 166q0 56 -23.5 102.5t-82.5 104.5zM252 827q0 -40 15 -76.5t46 -72.5l199 364q-18 6 -33.5 8.5t-29.5 2.5q-75 0 -136 -68.5t-61 -157.5z" />
<glyph unicode="%" horiz-adv-x="1858" d="M-209 639q0 74 37 147t104 132q64 56 147.5 89t160.5 33q70 0 128.5 -29t94.5 -81q39 -56 69.5 -75t73.5 -19q48 0 97 24t88 68q24 27 60 80q56 82 93 82q20 0 32.5 -13t12.5 -33q0 -14 -12.5 -35t-48.5 -65l-862 -1067l-17 12l717 994q-42 -30 -82 -45t-78 -15 q-36 0 -70 12t-65 35q5 -22 6.5 -34t1.5 -23q0 -61 -38.5 -132t-104.5 -132q-63 -58 -144 -89.5t-167 -31.5q-111 0 -172.5 55.5t-61.5 155.5zM-63 524q0 -34 18 -54.5t47 -20.5q31 0 72.5 27.5t79.5 74.5q74 92 125 208t51 177q0 40 -16.5 61t-47.5 21q-33 0 -79.5 -35.5 t-94.5 -97.5q-68 -89 -111.5 -192.5t-43.5 -168.5zM610 193q0 75 36.5 147.5t103.5 130.5q62 56 145 88.5t160 32.5q109 0 175 -60.5t66 -158.5q0 -78 -45.5 -157t-126.5 -140q-60 -47 -133 -71.5t-149 -24.5q-110 0 -171 56t-61 157zM756 84q0 -40 16.5 -61t46.5 -21 q32 0 73.5 27t78.5 73q74 93 125 209t51 176q0 40 -16.5 61t-47.5 21q-33 0 -80 -35t-94 -96q-66 -86 -109.5 -190t-43.5 -164z" />
<glyph unicode="&#x26;" horiz-adv-x="1858" d="M-281 240q0 127 96.5 224t290.5 167q38 201 175 337t292 136q60 0 99 -37t39 -92q0 -97 -96.5 -166.5t-327.5 -136.5q12 -141 61.5 -259t128.5 -194q33 27 106 128q44 61 70 95q90 116 163 165.5t149 49.5q66 0 110.5 -40t44.5 -99q0 -46 -34.5 -80.5t-81.5 -34.5 q-41 0 -70 28.5t-29 68.5q0 22 9 42t26 38q-13 8 -27 12t-28 4q-85 0 -283 -248q-71 -89 -113 -139q71 -78 175.5 -123t216.5 -45q159 0 278.5 82.5t165.5 224.5l12 -2q-44 -164 -215 -270.5t-395 -106.5q-116 0 -217 28.5t-180 82.5q-90 -59 -170 -88t-154 -29 q-127 0 -207 77.5t-80 199.5zM-76 322q0 -119 67.5 -197t168.5 -78q48 0 86.5 10.5t68.5 32.5q-103 72 -160 190t-57 261q0 15 1 33t1 20q0 3 1 9t1 9q-77 -28 -127.5 -109.5t-50.5 -180.5zM289 686q108 25 174.5 104.5t66.5 180.5q0 43 -18.5 68.5t-50.5 25.5 q-60 0 -115.5 -112.5t-56.5 -266.5z" />
<glyph unicode="'" horiz-adv-x="358" d="M84 1354q0 52 24.5 80t69.5 28q47 0 71.5 -27.5t24.5 -80.5q0 -16 -0.5 -24.5t-1.5 -15.5l-73 -458h-39l-74 459q-1 7 -1.5 15.5t-0.5 23.5z" />
<glyph unicode="(" horiz-adv-x="797" d="M-293 -217q0 555 305.5 965t913.5 671l2 -14q-235 -129 -436 -324t-349 -438q-181 -297 -275.5 -611t-94.5 -618v-8q2 -25 2 -47h-15q-27 104 -40 209t-13 215z" />
<glyph unicode=")" horiz-adv-x="797" d="M-997 -629q235 129 436 324.5t348 437.5q182 301 277.5 615t95.5 614q0 2 -1 9q-1 25 -1 48h12q27 -109 40 -213.5t13 -212.5q0 -555 -304.5 -965t-911.5 -671z" />
<glyph unicode="*" d="M209 1296q0 34 24.5 63.5t51.5 29.5q14 0 27.5 -7t25.5 -20l180 -203l-8 -12l-252 84q-23 8 -36 25.5t-13 39.5zM211 963q0 17 12 31.5t33 23.5l248 108l8 -10l-157 -212q-12 -15 -28 -23.5t-32 -8.5q-29 0 -56.5 30t-27.5 61zM530 1104l15 6l154 -216q5 -8 8.5 -20 t3.5 -24q0 -32 -27 -54t-66 -22q-26 0 -42 16.5t-19 45.5zM537 1159l2 264q0 31 20 51.5t51 20.5q39 0 63.5 -19t24.5 -49q0 -12 -2.5 -21.5t-7.5 -17.5l-135 -231zM559 1139l255 80q9 2 14.5 3t9.5 1q30 0 49.5 -24t19.5 -62q0 -35 -16.5 -54.5t-44.5 -19.5q-9 0 -13 0.5 t-8 1.5l-264 57z" />
<glyph unicode="+" horiz-adv-x="1706" d="M254 528v166h514v527h170v-527h514v-166h-514v-528h-170v528h-514z" />
<glyph unicode="," horiz-adv-x="588" d="M-651 -293l4 17q174 6 280.5 86t126.5 221q-15 -18 -32.5 -26.5t-40.5 -8.5q-45 0 -73 31.5t-28 83.5q0 65 41 106t107 41t109.5 -50.5t43.5 -127.5q0 -151 -152 -259t-386 -114z" />
<glyph unicode="-" horiz-adv-x="967" d="M-251 334l103 165q86 -2 156.5 -3.5t126.5 -1.5q43 0 174 2q53 1 82 2l-100 -166q-25 0 -73 1q-160 3 -216 3q-82 0 -139 -0.5t-114 -1.5z" />
<glyph unicode="." horiz-adv-x="588" d="M-416 131q0 60 44 105t104 45q62 0 105.5 -44t43.5 -106q0 -61 -44 -104t-105 -43t-104.5 43.5t-43.5 103.5z" />
<glyph unicode="/" horiz-adv-x="569" d="M-346 -195l647 1612h109q-154 -365 -316.5 -769t-333.5 -843h-106z" />
<glyph unicode="0" horiz-adv-x="1176" d="M-362 328q0 151 83.5 299.5t237.5 267.5q106 82 237 132t234 50q150 0 236 -82.5t86 -226.5q0 -149 -86 -310t-228 -274q-110 -88 -248.5 -143t-244.5 -55q-140 0 -223.5 92.5t-83.5 249.5zM-113 311q0 -128 52 -205t137 -77q57 0 122 50.5t128 143.5q79 117 122.5 258 t43.5 281q0 129 -47.5 201.5t-129.5 72.5q-56 0 -116.5 -42.5t-122.5 -125.5q-89 -120 -139 -267t-50 -290z" />
<glyph unicode="1" horiz-adv-x="1176" d="M-180 -8l475 817q-110 -56 -217.5 -98t-214.5 -70l-8 33q248 63 459.5 164.5t379.5 236.5l17 -18l-598 -1039z" />
<glyph unicode="2" horiz-adv-x="1176" d="M-514 0q0 31 120 114.5t322 192.5q41 22 116 60q147 75 194 108q92 66 139 145.5t47 170.5q0 101 -61 168t-152 67q-81 0 -138 -57.5t-57 -137.5q0 -61 40.5 -105t95.5 -44q32 0 54.5 18.5t29.5 49.5l10 -3q-5 -87 -65 -146.5t-144 -59.5q-78 0 -128 50t-50 128 q0 63 39 126.5t112 117.5q71 52 151 78t171 26q161 0 259.5 -78.5t98.5 -204.5q0 -130 -104 -222t-337 -165q-22 -7 -66 -20q-251 -75 -382 -158l7 -12q32 11 60.5 16.5t53.5 5.5q84 0 213.5 -30.5t181.5 -30.5q109 0 179.5 60t115.5 192l17 -2q-75 -201 -205.5 -315.5 t-280.5 -114.5q-47 0 -108 15.5t-180 62.5q-66 25 -108.5 36t-76.5 11q-11 0 -23 -3t-34 -12q-24 -81 -41.5 -101t-48.5 -20q-20 1 -28.5 6.5t-8.5 16.5z" />
<glyph unicode="3" horiz-adv-x="1176" d="M-453 260q0 87 62 149t147 62q71 0 126.5 -41.5t78.5 -112.5l-12 -3q-5 18 -22.5 29t-43.5 11q-55 0 -94 -45t-39 -112q0 -85 62 -143t155 -58q129 0 228.5 104t99.5 238q0 95 -52.5 144.5t-152.5 49.5q-35 0 -68.5 -3.5t-64.5 -10.5l10 33h49q251 0 377.5 75.5 t126.5 225.5q0 83 -46.5 136.5t-117.5 53.5q-66 0 -108.5 -44t-42.5 -113q0 -51 26.5 -83t67.5 -32q27 0 44.5 16.5t21.5 44.5l12 -2q0 -75 -56.5 -129.5t-130.5 -54.5q-66 0 -110.5 44.5t-44.5 111.5q0 109 122 190.5t292 81.5q139 0 223 -61t84 -160q0 -122 -123.5 -196 t-362.5 -97l-6 -18q144 -5 220.5 -60t76.5 -153q0 -146 -163.5 -248.5t-409.5 -102.5q-199 0 -320 79t-121 204z" />
<glyph unicode="4" horiz-adv-x="1176" d="M-387 340l868 870l209 13l-987 -836l498 6l344 598l286 31l-368 -623l221 7l-25 -41l-215 6l-192 -353l-293 -26l227 378q-163 -1 -304.5 -8.5t-268.5 -21.5z" />
<glyph unicode="5" horiz-adv-x="1176" d="M-375 252q0 93 60 153t151 60q77 0 133 -46.5t68 -121.5l-12 -2q-7 25 -26 39t-46 14q-54 0 -92.5 -49.5t-38.5 -120.5q0 -80 53 -131t137 -51q125 0 219.5 116.5t94.5 268.5q0 101 -50.5 158t-138.5 57q-42 0 -87.5 -16t-100.5 -50l-19 23l428 526q69 -55 129.5 -79.5 t126.5 -24.5q62 0 110.5 20t82.5 60l10 -11q-64 -116 -162.5 -179.5t-214.5 -63.5q-56 0 -109 14.5t-106 44.5l-252 -295q76 38 152 57t151 19q141 0 223.5 -68.5t82.5 -185.5q0 -94 -61.5 -181.5t-170.5 -148.5q-71 -38 -156.5 -59t-175.5 -21q-178 0 -285.5 75.5 t-107.5 199.5z" />
<glyph unicode="6" horiz-adv-x="1176" d="M-301 319q0 216 125 425t352 372q173 123 368 192.5t365 69.5q153 0 241.5 -64t88.5 -173q0 -84 -63.5 -141.5t-157.5 -57.5q19 63 27 103.5t8 72.5q0 106 -61 170t-163 64q-106 0 -242 -76.5t-270 -212.5q-115 -118 -195.5 -236.5t-127.5 -238.5l12 -2 q75 112 178.5 176.5t204.5 64.5q111 0 180.5 -72t69.5 -186q0 -102 -49 -203.5t-141 -191.5q-97 -92 -219.5 -148.5t-221.5 -56.5q-142 0 -225.5 95t-83.5 255zM-74 240q0 -106 47.5 -170t124.5 -64q47 0 93.5 27t80.5 76q63 84 100.5 200t37.5 221t-40.5 163.5t-111.5 58.5 q-43 0 -87 -25t-93 -78q-72 -77 -112 -184t-40 -225z" />
<glyph unicode="7" horiz-adv-x="1176" d="M-377 -254l942 993q47 51 84.5 89t71.5 69l-12 12q-75 -57 -147 -85.5t-142 -28.5q-83 0 -221.5 49t-192.5 49q-17 0 -35 -6t-41 -19q-37 -106 -63 -145t-55 -39q-13 0 -21 10.5t-8 26.5q0 24 34.5 65.5t96.5 92.5q13 46 21 93.5t12 96.5h22q-3 -45 -10.5 -88t-19.5 -86 q70 80 142.5 118t154.5 38q70 0 198.5 -48.5t192.5 -48.5q62 0 114.5 28t104.5 87l20 -12q-239 -319 -463 -639.5t-432 -640.5q-82 0 -168.5 -7.5t-179.5 -23.5z" />
<glyph unicode="8" horiz-adv-x="1176" d="M-322 293q0 154 120 265.5t325 143.5q-20 43 -29.5 86t-9.5 89q0 166 119 270t307 104q154 0 253 -88t99 -223q0 -126 -95 -215.5t-255 -112.5l-2 17q81 26 124.5 95t43.5 173q0 139 -62.5 234.5t-152.5 95.5q-73 0 -120.5 -63.5t-47.5 -162.5q0 -46 15 -99t42 -103 q11 -18 31 -53q141 -245 141 -369q0 -87 -38 -162t-111 -131q-69 -52 -161.5 -82.5t-180.5 -30.5q-158 0 -256.5 90t-98.5 232zM-125 373q0 -161 70 -266t174 -105q82 0 135 69.5t53 180.5q0 72 -31.5 156.5t-144.5 275.5q-113 -11 -184.5 -97.5t-71.5 -213.5z" />
<glyph unicode="9" horiz-adv-x="1176" d="M-999 -201q0 80 55 129.5t145 50.5q-5 -30 -7.5 -52.5t-2.5 -41.5q0 -135 88 -221t227 -86q117 0 270.5 94t291.5 254q106 125 185.5 251t133.5 253l-10 6q-78 -107 -177 -167t-196 -60q-113 0 -181.5 74.5t-68.5 197.5q0 109 62 224t172 206q87 74 186 112t203 38 q144 0 225.5 -86.5t81.5 -239.5q0 -190 -100 -396.5t-281 -387.5q-183 -185 -422 -292.5t-463 -107.5q-196 0 -306.5 66t-110.5 182zM-23 504q0 -97 43 -158t109 -61q46 0 99.5 30.5t95.5 81.5q64 80 99.5 179t35.5 200q0 124 -46 189t-132 65q-44 0 -94.5 -34t-92.5 -93 q-52 -74 -84.5 -183.5t-32.5 -215.5z" />
<glyph unicode=":" horiz-adv-x="588" d="M-412 131q0 57 43.5 100t100.5 43q60 0 102.5 -41.5t42.5 -101.5q0 -59 -43 -101t-102 -42q-58 0 -101 43t-43 100zM-160 569q0 57 42.5 100.5t99.5 43.5q60 0 102.5 -42t42.5 -102q0 -59 -43 -101t-102 -42q-57 0 -99.5 43.5t-42.5 99.5z" />
<glyph unicode=";" horiz-adv-x="588" d="M-651 -293l4 17q174 6 280.5 86t126.5 221q-15 -18 -32.5 -26.5t-40.5 -8.5q-45 0 -73 31.5t-28 83.5q0 65 41 106t107 41t109.5 -50.5t43.5 -127.5q0 -151 -152 -259t-386 -114zM-160 569q0 57 42.5 100.5t99.5 43.5q60 0 102.5 -42t42.5 -102q0 -59 -43 -101t-102 -42 q-57 0 -99.5 43.5t-42.5 99.5z" />
<glyph unicode="&#x3c;" horiz-adv-x="1706" d="M264 530v160l1178 486v-185l-934 -381l934 -381v-182z" />
<glyph unicode="=" horiz-adv-x="1706" d="M254 322v165h1198v-165h-1198zM254 733v168h1198v-168h-1198z" />
<glyph unicode="&#x3e;" horiz-adv-x="1706" d="M264 47v182l934 381l-934 381v185l1178 -486v-160z" />
<glyph unicode="?" d="M-283 121q0 56 41 97.5t97 41.5t97.5 -41t41.5 -98q0 -56 -41 -96.5t-98 -40.5q-56 0 -97 41t-41 96zM-147 725q0 69 39 135t114 121q65 48 145.5 75t157.5 27q140 0 229 -77.5t89 -198.5q0 -120 -86.5 -203.5t-331.5 -179.5l-13 -5q-170 -65 -225 -153l-16 8 q46 68 154 139l10 7q166 116 215 189t49 167q0 103 -65.5 175.5t-157.5 72.5q-75 0 -122.5 -51.5t-47.5 -132.5q0 -68 33 -110t86 -42q45 0 73.5 33.5t28.5 87.5v10h12q1 -8 1.5 -17t0.5 -24q0 -100 -59.5 -167.5t-145.5 -67.5q-72 0 -119.5 52t-47.5 130z" />
<glyph unicode="@" horiz-adv-x="2019" d="M139 537q0 203 86 381t250 313q135 111 297.5 168t345.5 57q348 0 557 -188.5t209 -501.5q0 -159 -59 -297.5t-168 -237.5q-62 -54 -129 -82t-133 -28q-98 0 -152.5 52.5t-60.5 152.5q-64 -105 -137.5 -154t-165.5 -49q-134 0 -212.5 92t-78.5 248q0 112 49 219t141 195 q68 65 147.5 99t161.5 34q90 0 145.5 -47.5t72.5 -139.5l51 170h172l-172 -616l-2 -6q-15 -59 -15 -90q0 -49 22 -76t60 -27q34 0 84 22t92 56q110 88 169 222t59 296q0 279 -191 450t-504 171q-173 0 -328.5 -65t-273.5 -185q-122 -125 -183.5 -286t-61.5 -357 q0 -172 59.5 -306.5t179.5 -234.5q106 -88 247 -135t302 -47q166 0 321 51.5t304 157.5l37 -47q-148 -111 -315 -167.5t-347 -56.5q-188 0 -347 46.5t-275 134.5q-151 113 -230.5 277t-79.5 362zM772 367q0 -83 36.5 -133t94.5 -50q62 0 115.5 41.5t107.5 132.5 q56 96 89.5 210t33.5 204q0 83 -37.5 132.5t-99.5 49.5q-64 0 -117 -45t-106 -147q-57 -107 -87 -209.5t-30 -185.5z" />
<glyph unicode="A" horiz-adv-x="1933" d="M-602 197q0 72 40.5 118.5t102.5 46.5q47 0 77 -30.5t30 -79.5q0 -43 -21.5 -69.5t-56.5 -26.5q-2 0 -7 1t-7 1q9 -64 63 -99.5t141 -35.5q75 0 165.5 35t183.5 100q139 99 435 418q50 55 77 83q320 347 567.5 517.5t531.5 257.5l17 -23q-355 -375 -556.5 -718.5 t-201.5 -559.5q0 -58 18 -86.5t56 -28.5q84 0 243 141t312 365l12 -8q-177 -259 -360.5 -406t-325.5 -147q-94 0 -147.5 56.5t-53.5 156.5q0 88 34.5 201.5t96.5 230.5h-270q-303 -346 -512.5 -490.5t-398.5 -144.5q-127 0 -206 63t-79 161zM612 625h260q90 160 205.5 306 t311.5 337l-5 12q-192 -101 -385 -265t-387 -390z" />
<glyph unicode="B" horiz-adv-x="2048" d="M-420 197q0 70 39.5 115.5t99.5 45.5q52 0 86.5 -34t34.5 -84q0 -37 -20 -65.5t-55 -41.5q1 -64 42.5 -100.5t114.5 -36.5q143 0 270.5 127t321.5 485q177 329 314 485.5t298 229.5q-59 33 -139 49.5t-180 16.5q-174 0 -329 -58.5t-283 -171.5q-116 -103 -177 -227 t-61 -254q0 -102 56.5 -168t144.5 -66q116 0 204.5 114t88.5 267q0 90 -18 157.5t-56 119.5l14 8q37 -51 57.5 -120.5t20.5 -145.5q0 -115 -38.5 -203.5t-121.5 -163.5q-57 -53 -124.5 -80.5t-139.5 -27.5q-134 0 -220.5 85.5t-86.5 217.5q0 146 91 285t259 247 q159 102 355 153.5t425 51.5q78 0 160.5 -11.5t169.5 -33.5q79 37 161.5 55.5t164.5 18.5q21 0 33 -0.5t24 -2.5v-18h-43q-65 0 -129.5 -19.5t-124.5 -58.5q113 -47 173.5 -124t60.5 -173q0 -138 -118 -225t-335 -108l-10 -23h45q154 0 243 -72.5t89 -197.5q0 -79 -42 -156 t-118 -137q-90 -71 -205.5 -110.5t-235.5 -39.5q-106 0 -176.5 52t-70.5 129q0 60 43 103.5t102 43.5q41 0 72 -14.5t55 -44.5q-46 -38 -71 -79t-25 -79q0 -42 23.5 -64t68.5 -22q49 0 100.5 31t96.5 88q56 71 88 159t32 170q0 109 -55.5 168.5t-157.5 59.5q-13 0 -53 -3 q-15 -1 -22 -1l8 18q175 26 284 136.5t109 256.5q0 60 -20.5 109t-59.5 82q-80 -64 -294 -450q-93 -167 -148 -263q-169 -292 -384 -439t-474 -147q-142 0 -232 63.5t-90 160.5z" />
<glyph unicode="C" horiz-adv-x="1479" d="M-176 369q0 181 109.5 375.5t304.5 355.5q178 147 385 230t393 83q124 0 195 -58.5t71 -160.5q0 -128 -114.5 -227t-264.5 -99q-101 0 -163 52t-62 135q0 49 20.5 93t59.5 77l10 -8q-37 -37 -55.5 -77t-18.5 -83q0 -66 42.5 -108t109.5 -42q57 0 111.5 31.5t99.5 89.5 q39 52 61.5 113.5t22.5 115.5q0 66 -36.5 101t-105.5 35q-106 0 -232.5 -57.5t-246.5 -161.5q-200 -174 -315 -401t-115 -445q0 -152 72 -243t190 -91q146 0 256.5 131.5t110.5 310.5q0 102 -42 158.5t-118 56.5q-96 0 -165.5 -105t-69.5 -255q0 -13 1 -28t1 -17h-14 q-3 20 -4 29.5t-1 15.5q0 180 100.5 304t239.5 124q115 0 186.5 -69t71.5 -179q0 -88 -49.5 -175t-142.5 -161q-106 -85 -231 -131.5t-244 -46.5q-193 0 -303.5 110t-110.5 302z" />
<glyph unicode="D" horiz-adv-x="2048" d="M-295 51q0 19 20.5 30t57.5 11q51 0 144.5 -14.5t234.5 -44.5q115 25 223.5 141.5t237.5 355.5q18 34 55 108q138 276 258 425q62 75 124.5 131.5t131.5 99.5q-77 53 -178 82t-211 29q-148 0 -290.5 -63t-250.5 -175q-97 -102 -152 -229t-55 -252q0 -118 54 -186t147 -68 q126 0 225 126t99 294q0 64 -16 131.5t-48 138.5l12 4q34 -76 50 -143t16 -131q0 -88 -29 -169t-84 -148q-63 -79 -146 -122.5t-167 -43.5q-141 0 -235.5 95.5t-94.5 235.5q0 139 70 273t194 233q129 104 302 160.5t360 56.5q134 0 247.5 -28.5t209.5 -85.5 q103 66 224.5 103.5t252.5 43.5q-26 -8 -73 -21q-237 -68 -329 -175q125 -107 192.5 -244t67.5 -281q0 -180 -101 -344.5t-275 -265.5q-123 -71 -299.5 -107t-397.5 -36q-81 0 -238 14q-77 7 -115 10q-70 -13 -127 -19.5t-103 -6.5q-95 0 -145 18.5t-50 52.5zM195 27 q66 -15 134.5 -22t141.5 -7q174 0 316 57.5t257 173.5q135 136 212 329t77 392q0 84 -17.5 148.5t-53.5 115.5q-91 -126 -212.5 -375t-187.5 -343q-123 -178 -288.5 -294.5t-378.5 -174.5z" />
<glyph unicode="E" horiz-adv-x="1442" d="M-311 285q0 107 68.5 190t232.5 168q7 4 21 10q93 46 110 119q6 25 19 112.5t30 145.5q16 57 42.5 108t61.5 93q71 84 195 137t248 53q137 0 219 -62.5t82 -166.5q0 -121 -110.5 -202t-274.5 -81q-39 0 -75 6.5t-73 20.5l5 14q25 -11 53.5 -16.5t60.5 -5.5q99 0 159 72 t60 190q0 94 -46 150.5t-124 56.5q-58 0 -110.5 -43.5t-81.5 -116.5q-21 -54 -37 -172.5t-41 -171.5q-30 -65 -163 -139q-56 -31 -85 -49q-82 -54 -131 -146.5t-49 -196.5q0 -157 100.5 -260.5t253.5 -103.5q148 0 251.5 105.5t103.5 252.5q0 99 -51.5 158t-135.5 59 q-79 0 -153.5 -59t-128.5 -166l-15 6q71 140 190 219.5t253 79.5q109 0 176 -61.5t67 -161.5q0 -94 -57.5 -177t-173.5 -157q-108 -68 -233 -102.5t-261 -34.5q-207 0 -329.5 89.5t-122.5 236.5z" />
<glyph unicode="F" horiz-adv-x="1821" d="M-256 215q0 68 38 111t99 43q53 0 87 -33.5t34 -85.5q0 -45 -27 -76t-65 -31q11 -70 66 -109.5t143 -39.5q167 0 307 140t333 519q-39 -4 -65 -6.5t-46 -3.5l5 21h6q72 4 111 8q125 220 300.5 343.5t445.5 186.5l-3 4q-129 8 -231 11.5t-192 3.5q-354 0 -585 -33 t-376 -103q-117 -57 -185.5 -141t-68.5 -168q0 -94 87 -158.5t218 -64.5q106 0 214 42t175 110q45 45 69 95.5t24 102.5q0 31 -8.5 64t-24.5 71l12 6q20 -36 29.5 -74.5t9.5 -80.5q0 -67 -24 -132t-68 -118q-75 -88 -179 -136t-221 -48q-155 0 -244 85t-89 232 q0 109 69.5 211.5t200.5 185.5q191 122 484.5 183t682.5 61q93 0 230.5 -5t181.5 -5h84q119 0 171 -23.5t52 -74.5q0 -57 -65 -84t-203 -27q-30 0 -75.5 1.5t-107.5 4.5q-138 -27 -264.5 -155.5t-242.5 -360.5q68 5 112 19t72 38q22 48 54 66t98 18q21 0 66.5 -2.5 t68.5 -3.5q-153 -119 -259.5 -239t-179.5 -254h-18q19 72 50.5 158t78.5 190l-154 -12q-165 -342 -399 -515.5t-530 -173.5q-171 0 -270 65.5t-99 176.5z" />
<glyph unicode="G" horiz-adv-x="1479" d="M-342 285q0 81 47.5 137.5t116.5 56.5q53 0 86 -32t33 -85q0 -50 -30.5 -85t-76.5 -40q-8 -19 -11 -32t-3 -23q0 -77 73 -131.5t183 -54.5q170 0 319.5 134.5t251.5 381.5q-83 -73 -177 -112.5t-183 -39.5q-121 0 -196 78.5t-75 204.5q0 164 116 324.5t326 285.5 q-8 26 -13 51.5t-5 49.5q0 82 43 141.5t121 85.5l6 -14q-72 -26 -112.5 -80.5t-40.5 -126.5q0 -25 4 -49.5t12 -48.5q163 84 313.5 124.5t296.5 40.5q143 0 220 -45.5t77 -130.5q0 -112 -122.5 -191t-307.5 -79q-135 0 -236 40.5t-182 127.5q-115 -112 -178 -244.5 t-63 -259.5q0 -95 41.5 -151t109.5 -56q46 0 97.5 21.5t91.5 56.5q33 30 52 94q3 11 5 17q19 52 38.5 79t45.5 39q47 22 111 36t114 14q17 0 28 -7.5t11 -19.5q0 -10 -20 -42q-13 -20 -21 -34q-15 -26 -50 -103.5t-62 -123.5q-135 -233 -340 -359t-449 -126 q-196 0 -316 85.5t-120 219.5zM545 1161q65 -71 142.5 -106t170.5 -35q147 0 248.5 76.5t101.5 179.5q0 63 -42.5 98t-118.5 35q-113 0 -247.5 -66t-254.5 -182z" />
<glyph unicode="H" horiz-adv-x="2048" d="M-457 221q0 70 40 114t104 44q47 0 78.5 -32.5t31.5 -80.5q0 -43 -17.5 -76t-53.5 -59q30 -51 80 -79.5t108 -28.5q67 0 126 41.5t150 162.5q88 118 231 351t208 329q133 197 292 309t377 166h-63q-532 0 -864 -149t-332 -371q0 -79 46.5 -126.5t125.5 -47.5 q102 0 180 76.5t78 163.5q0 32 -10 61t-31 60l16 6q24 -39 33.5 -66t9.5 -53q0 -45 -19.5 -90.5t-57.5 -89.5q-61 -69 -143.5 -107.5t-172.5 -38.5q-114 0 -189 70t-75 176q0 225 321 370.5t885 170.5q81 4 194.5 5t141.5 5q37 6 93 15q81 14 96 14q16 0 28.5 -7.5 t12.5 -17.5q-1 -32 -105 -34q-12 -1 -18 -1q-60 -2 -104.5 -11.5t-84.5 -29.5q-98 -46 -197 -164.5t-294 -445.5h250q90 166 199 291t233 203q130 82 270.5 130t245.5 48q104 0 161.5 -33.5t57.5 -93.5q0 -42 -26.5 -72.5t-63.5 -30.5q-38 0 -70.5 26t-56.5 75 q-24 48 -50.5 68t-64.5 20q-85 0 -218 -127t-263 -336q-115 -185 -179.5 -365.5t-64.5 -312.5q0 -71 27.5 -113.5t73.5 -42.5q70 0 173.5 104t301.5 380l12 -8q-212 -306 -353.5 -432t-267.5 -126q-100 0 -156.5 70.5t-56.5 196.5q0 84 29.5 193.5t91.5 258.5h-252 q-181 -353 -402 -525.5t-493 -172.5q-160 0 -252 59.5t-92 163.5z" />
<glyph unicode="I" horiz-adv-x="1479" d="M-451 246q0 65 39.5 108t98.5 43q54 0 86 -31.5t32 -84.5q0 -39 -21 -68t-54 -37q-1 -5 -1.5 -11.5t-0.5 -14.5q0 -71 69 -118.5t176 -47.5q96 0 185.5 41.5t173.5 126.5q110 110 269 399q80 146 126 219q150 236 326.5 368.5t441.5 209.5h-33q-603 0 -954.5 -154 t-351.5 -412q0 -83 51.5 -137.5t132.5 -54.5q100 0 176 74.5t76 173.5q0 39 -12.5 75t-36.5 68l10 8q27 -32 41 -70t14 -81q0 -127 -112 -222.5t-267 -95.5q-125 0 -205.5 71t-80.5 179q0 262 353 420t986 174h143q69 0 95 2t43 6q16 4 48 13q99 26 140 26q28 0 43.5 -9.5 t15.5 -25.5q0 -20 -21 -32.5t-56 -12.5q-20 0 -62 4t-121 13q-128 -25 -240.5 -128t-228.5 -302q-30 -53 -87 -154q-262 -463 -451 -606q-115 -87 -267.5 -140t-283.5 -53q-203 0 -323 77t-120 204z" />
<glyph unicode="J" horiz-adv-x="1479" d="M-768 -350q0 113 80.5 184t259.5 115q103 25 341.5 57.5t362.5 54.5q48 83 136 241q337 606 538 785q90 80 210.5 142.5t297.5 118.5h-33q-604 0 -956 -154.5t-352 -411.5q0 -81 53.5 -136.5t132.5 -55.5q100 0 175 74.5t75 173.5q0 39 -12 75t-37 68l12 8 q28 -32 41.5 -70t13.5 -81q0 -127 -112 -222.5t-266 -95.5q-126 0 -206.5 71t-80.5 179q0 262 353 420t986 174h144q68 0 94 2t42 6q19 5 51 13q96 26 136 26q28 0 45 -9.5t17 -25.5q0 -20 -22 -32.5t-58 -12.5q-21 0 -61 3.5t-119 13.5q-96 -20 -174.5 -74t-163.5 -160 q-146 -180 -591 -984l-9 -17q169 46 322 155t261 262l12 -8q-110 -161 -269.5 -273.5t-342.5 -158.5q-187 -321 -437 -496.5t-521 -175.5q-173 0 -271 62t-98 170zM-553 -371q0 -88 54.5 -140t146.5 -52q152 0 302.5 147t317.5 463q-469 -67 -645 -160t-176 -258z" />
<glyph unicode="K" horiz-adv-x="2048" d="M-401 213q0 59 39.5 102t91.5 43q57 0 92 -32t35 -84q0 -35 -20.5 -59.5t-51.5 -29.5q0 -3 -1 -12.5t-1 -13.5q0 -56 44.5 -92.5t115.5 -36.5q65 0 132 32.5t132 96.5q103 102 280 424q57 103 88 158q132 229 232 339.5t229 188.5q70 43 160.5 78t200.5 63l-2 6h-86 q-235 0 -456 -36.5t-386 -102.5q-181 -72 -278 -179.5t-97 -234.5q0 -72 50 -122t124 -50q100 0 181 81.5t81 185.5q0 30 -9.5 60t-31.5 65l11 8q24 -32 35.5 -66t11.5 -75q0 -124 -119 -225t-272 -101q-119 0 -189.5 67t-70.5 179q0 233 294.5 373.5t862.5 177.5 q73 4 221 6.5t205 15.5q67 15 106 22t55 7q22 0 32.5 -8t10.5 -23q0 -14 -17.5 -20.5t-57.5 -6.5q-13 0 -46.5 2t-54.5 2q-122 0 -246 -98.5t-243 -290.5q-59 -95 -161 -280q-189 -344 -312 -469q-122 -122 -287 -194t-319 -72q-156 0 -247 63t-91 168zM899 152 q0 54 20 117.5t72 168.5q42 84 54 120.5t12 66.5q0 58 -34 83t-116 25v19q9 0 29 -1t31 -1q105 0 194 49.5t195 171.5q19 21 58 71q126 155 222 234q86 70 186.5 107.5t202.5 37.5q101 0 158.5 -38.5t57.5 -106.5q0 -76 -62.5 -124t-171.5 -54q32 52 48 99.5t16 90.5 q0 51 -19.5 83t-48.5 32t-58.5 -21t-62.5 -65q-24 -32 -86.5 -135t-112.5 -160q-125 -142 -288 -210t-391 -73q119 -50 181 -123t62 -163q0 -56 -46 -176.5t-46 -176.5q0 -22 18.5 -38.5t45.5 -16.5q77 0 220.5 133.5t291.5 351.5l12 -8q-195 -278 -353 -409t-298 -131 q-92 0 -142.5 44.5t-50.5 125.5z" />
<glyph unicode="L" horiz-adv-x="1327" d="M-754 33q0 25 33 38t96 13q59 0 149.5 -6t213.5 -19q132 38 250.5 192t333.5 607q-133 28 -212 108t-79 185q0 91 65 153t162 62q30 0 55.5 -5t51.5 -15l-7 -15q-34 12 -56 16.5t-42 4.5q-92 0 -151.5 -57t-59.5 -144q0 -97 75.5 -173t203.5 -104q129 257 350.5 407.5 t464.5 150.5q135 0 212 -57t77 -156q0 -87 -65.5 -164.5t-188.5 -134.5q-103 -48 -231 -74.5t-257 -26.5q-31 0 -60.5 1.5t-60.5 4.5q-146 -325 -329.5 -502.5t-456.5 -263.5l2 -6q5 0 28.5 1t43.5 1q218 0 328.5 -46t140.5 -148q141 161 547 545q90 84 137 129l10 -13 q-83 -81 -239 -227q-338 -320 -451 -459q-3 -84 -78.5 -154.5t-149.5 -70.5q-23 0 -37 9t-14 24q0 12 7.5 21.5t35.5 27.5q1 11 1.5 23.5t0.5 35.5q0 125 -90 206t-231 81q-35 0 -173.5 -31t-240.5 -31q-57 0 -86 14t-29 42zM576 842q22 -4 46 -5t72 -1q224 0 378.5 127.5 t154.5 304.5q0 67 -34 106t-91 39q-106 0 -249.5 -154t-276.5 -417z" />
<glyph unicode="M" horiz-adv-x="2048" d="M-659 203q0 68 38.5 112.5t96.5 44.5q51 0 86 -33t35 -81q0 -36 -22 -63t-64 -42q-1 -4 -2.5 -12.5t-2.5 -11.5q0 -41 47.5 -67.5t122.5 -26.5q93 0 182.5 48t192.5 154q109 112 309 397q63 90 97 136q209 292 407.5 446.5t448.5 227.5l10 -25q-121 -64 -209 -177.5 t-174 -324.5q-17 -42 -50 -127q-169 -440 -362 -633l13 -14q194 157 477 539q92 124 139 184q231 293 454.5 431t467.5 138q44 0 67 -10t23 -31q0 -12 -16 -22t-35 -10q-34 0 -92 12t-80 12q-80 0 -176.5 -127t-194.5 -362q-12 -28 -34 -83q-142 -348 -259 -495 q-83 -104 -184.5 -176.5t-220.5 -112.5h41q277 0 474 124.5t334 387.5l15 -8q-139 -268 -341.5 -395t-490.5 -127q-28 0 -42.5 0.5t-26.5 1.5q-37 -12 -72.5 -18.5t-69.5 -6.5q-27 0 -44 11.5t-17 27.5q0 14 12 23.5t29 9.5q43 0 100 -12t68 -12q55 0 116 93.5t173 364.5 q96 234 161 346.5t144 202.5q88 102 190.5 182t218.5 138l-4 14q-155 -36 -311 -151t-311 -308q-60 -74 -174 -226q-242 -323 -383 -462q-90 -88 -171.5 -147.5t-164.5 -98.5l-21 19q81 108 158 346.5t115 327.5q108 252 255.5 416.5t354.5 267.5l-8 18 q-168 -66 -314 -180.5t-292 -296.5q-71 -87 -223.5 -307t-250.5 -330q-125 -141 -241.5 -210t-229.5 -69q-127 0 -209.5 64.5t-82.5 163.5z" />
<glyph unicode="N" horiz-adv-x="1858" d="M-571 207q0 66 39 113t92 47q49 0 81.5 -33.5t32.5 -83.5q0 -48 -26.5 -78.5t-69.5 -30.5h-6q9 -52 56.5 -83t119.5 -31q218 0 422 236t453 784q0 6 -1 19.5t-1 20.5q0 158 66 245t185 87h39l-57 -129q-5 -40 -6.5 -60.5t-1.5 -39.5q0 -110 76 -349q25 -78 36 -118 q32 -111 45 -192t13 -156v-15q217 504 437.5 773.5t414.5 269.5q80 0 130 -50.5t50 -131.5q0 -97 -74 -168t-202 -95v15q60 12 93 50.5t33 96.5q0 67 -42 105.5t-115 38.5q-188 0 -413 -338.5t-462 -976.5h-28q5 30 7.5 61t2.5 66q0 84 -16 180.5t-46 185.5q-8 25 -24 72 q-117 346 -135 500q-246 -542 -466 -785t-460 -243q-119 0 -195.5 62.5t-76.5 158.5z" />
<glyph unicode="O" horiz-adv-x="1669" d="M-199 373q0 197 115.5 397t319.5 356q108 84 224 134t236 65q52 49 107 73.5t112 24.5q110 0 181 -95.5t71 -246.5q0 -143 -67 -319t-187 -340q22 -7 46 -9.5t57 -2.5q90 0 171.5 33.5t168.5 105.5l6 -14q-87 -75 -171 -109.5t-177 -34.5q-29 0 -58.5 3.5t-60.5 10.5 q-163 -205 -357 -320.5t-372 -115.5q-168 0 -266.5 108.5t-98.5 295.5zM72 367q0 -154 71 -247t187 -93q112 0 244.5 118.5t222.5 307.5q-136 65 -207.5 177t-71.5 259q0 104 42 210.5t124 211.5q-99 -28 -192.5 -98t-180.5 -181q-107 -137 -173 -321.5t-66 -343.5zM614 928 q0 -170 45.5 -278.5t145.5 -178.5q79 180 117.5 332.5t38.5 290.5t-37 208t-109 70q-22 0 -44 -11t-48 -36q73 0 115.5 -45t42.5 -123q0 -41 -11.5 -80.5t-35.5 -83.5l-13 4q23 44 34 82t11 70q0 77 -37.5 119.5t-105.5 42.5h-12q-48 -71 -72.5 -167.5t-24.5 -215.5z" />
<glyph unicode="P" horiz-adv-x="1933" d="M-365 70q0 17 20 28t54 11q33 0 92.5 -7.5t136.5 -21.5q41 -7 107 -19q104 -18 115 -18q16 0 48 16t73 45q70 51 133 130.5t153 236.5q24 41 70 126q194 357 352 523q87 92 172.5 153.5t175.5 96.5q-51 26 -120 38.5t-156 12.5q-167 0 -327.5 -53t-291.5 -151 q-142 -108 -228.5 -254t-86.5 -275q0 -102 51.5 -162.5t136.5 -60.5q114 0 193.5 105t79.5 261q0 58 -6 102.5t-19 84.5l15 4q13 -39 19.5 -85t6.5 -101q0 -97 -27 -173.5t-83 -144.5q-61 -72 -142 -112.5t-164 -40.5q-122 0 -200 79.5t-78 204.5q0 172 127.5 335.5 t357.5 285.5q159 84 334.5 127t366.5 43q79 0 156.5 -9.5t154.5 -27.5q62 25 127.5 39.5t130.5 17.5l2 -12q-88 -19 -127 -32t-67 -30q123 -52 193.5 -148.5t70.5 -211.5q0 -156 -126 -263.5t-315 -107.5q-104 0 -163.5 35.5t-59.5 95.5q0 41 29 68t74 27q25 0 44.5 -8 t34.5 -25q-26 -19 -41.5 -48.5t-15.5 -60.5q0 -29 15.5 -47t39.5 -18q32 0 72 29.5t76 80.5q47 67 73.5 149.5t26.5 160.5q0 92 -24.5 150.5t-75.5 86.5q-51 -41 -100 -96t-101 -129q-69 -99 -187 -311t-186 -312q-116 -172 -265 -279.5t-355 -166.5q96 -14 184 -20.5 t170 -6.5q387 0 635.5 122.5t419.5 395.5l14 -6q-191 -294 -401.5 -421.5t-507.5 -127.5q-96 0 -227 13t-318 41q-95 -28 -169.5 -41t-139.5 -13q-101 0 -166.5 28.5t-65.5 68.5z" />
<glyph unicode="Q" horiz-adv-x="1593" d="M-549 61q0 57 101 98.5t251 41.5q73 0 164.5 -10.5t225.5 -34.5q348 145 549.5 377t201.5 483q0 156 -81 253t-212 97q-149 0 -256.5 -122t-107.5 -286q0 -126 68.5 -207t172.5 -81q92 0 171 70.5t110 183.5l12 -4q-31 -139 -160 -234.5t-280 -95.5q-123 0 -202 76 t-79 194q0 114 70 221.5t201 194.5q97 65 201 98t212 33q186 0 303 -102t117 -261q0 -234 -245.5 -458t-735.5 -436q110 -22 201.5 -33t167.5 -11q212 0 373.5 100t310.5 324l10 -8q-196 -287 -422 -444.5t-440 -157.5q-98 0 -198.5 34t-217.5 107q-111 -39 -211.5 -58 t-193.5 -19q-78 0 -115 19t-37 58zM-403 94q0 -34 38.5 -57t100.5 -23q42 0 98.5 12t157.5 44l-15 8q-177 104 -260 104q-53 0 -86.5 -25t-33.5 -63z" />
<glyph unicode="R" horiz-adv-x="2048" d="M-410 199q0 66 40 110.5t100 44.5q51 0 87 -33t36 -81q0 -38 -19.5 -63.5t-54.5 -35.5v-24q0 -59 38.5 -89t114.5 -30q134 0 258 114t273 380q22 39 64 117q220 403 388 567q54 50 116 93t134 79q-58 29 -129 44t-149 15q-192 0 -368.5 -65t-303.5 -183 q-103 -95 -156 -201.5t-53 -218.5q0 -101 49 -156t140 -55q140 0 238.5 132t98.5 337q0 31 -3 59t-9 54l12 4q8 -29 11.5 -58t3.5 -59q0 -109 -25 -194.5t-78 -155.5q-70 -93 -166 -142.5t-204 -49.5q-130 0 -211.5 77t-81.5 201q0 147 107 286.5t298 240.5q156 83 340 125 t389 42q98 0 185.5 -8t165.5 -24q65 22 128.5 33.5t127.5 11.5q18 0 65 -4h6v-15h-34q-67 0 -117.5 -13t-89.5 -40q113 -44 174 -122.5t61 -178.5q0 -154 -140.5 -250t-371.5 -96h-43l-4 -21q118 -60 167.5 -120t49.5 -140q0 -66 -44 -178t-44 -156q0 -29 15.5 -46t41.5 -17 q86 0 225 129.5t290 353.5l12 -8q-173 -263 -339.5 -403t-307.5 -140q-93 0 -147 48.5t-54 130.5q0 47 15 97.5t61 139.5l1 2q72 142 72 201q0 54 -33.5 85.5t-93.5 31.5h-14l13 24q24 -2 36.5 -3t20.5 -1q149 0 259.5 111t110.5 264q0 59 -22.5 106t-69.5 84 q-81 -71 -164.5 -192t-251.5 -433l-1 -2q-196 -360 -371 -497q-124 -96 -265.5 -146.5t-287.5 -50.5q-137 0 -227.5 64t-90.5 160z" />
<glyph unicode="S" horiz-adv-x="1442" d="M-375 322q0 98 48.5 159.5t125.5 61.5q51 0 84 -34t33 -87q0 -56 -27.5 -88.5t-76.5 -34.5q-9 -22 -13 -41t-4 -37q0 -101 81.5 -168t209.5 -67q113 0 206 56t148 157q75 137 97 510q2 40 4 62q11 203 46 303t107 179q74 80 176 121t228 41q138 0 219.5 -58t81.5 -155 q0 -84 -66 -141t-164 -57q-25 0 -47 2t-43 6q48 34 73.5 83.5t25.5 108.5q0 82 -43.5 136.5t-108.5 54.5q-51 0 -95.5 -36t-74.5 -102q-51 -110 -64 -457q-1 -31 -1 -46q-7 -227 -51 -365t-136 -231q-87 -89 -222.5 -142t-277.5 -53q-208 0 -343.5 101.5t-135.5 257.5z" />
<glyph unicode="T" horiz-adv-x="1821" d="M-158 215q0 66 38.5 110t94.5 44t90.5 -33t34.5 -86q0 -44 -26 -75.5t-64 -31.5q12 -71 66 -110t141 -39q162 0 299 131t303 450q93 179 169.5 274t174.5 165q85 60 194.5 106t256.5 82l-2 4q-130 8 -232 11.5t-192 3.5q-354 0 -584.5 -33t-376.5 -103 q-117 -57 -185.5 -141t-68.5 -168q0 -94 87 -158.5t219 -64.5q105 0 213 42t176 110q45 45 68.5 95.5t23.5 102.5q0 31 -8 64t-25 71l14 6q19 -34 28 -72.5t9 -82.5q0 -67 -24 -132t-68 -118q-74 -88 -178.5 -136t-220.5 -48q-155 0 -244.5 85t-89.5 232q0 109 70 211 t202 186q191 122 484 183t682 61q93 0 230 -5t181 -5h84q119 0 171 -23.5t52 -74.5q0 -57 -64.5 -84t-203.5 -27q-29 0 -73.5 1.5t-106.5 4.5q-143 -31 -263.5 -153.5t-264.5 -395.5q-122 -229 -213 -339t-205 -185q-112 -74 -243 -114t-261 -40q-171 0 -270 65.5t-99 176.5 z" />
<glyph unicode="U" horiz-adv-x="1933" d="M-150 891q0 92 61 194.5t165 184.5q88 70 192.5 108.5t206.5 38.5q127 0 198.5 -59t71.5 -164q0 -131 -292 -583l-27 -42q-144 -224 -182.5 -308t-38.5 -140q0 -38 21 -61t57 -23q55 0 151 61t203 166q168 166 531 776q119 201 186 310h278q-402 -612 -558 -887.5 t-156 -364.5q0 -42 21.5 -66t59.5 -24q100 0 275 143.5t338 372.5l10 -10q-181 -257 -374.5 -404t-348.5 -147q-97 0 -151 50t-54 141q0 39 15 87.5t45 106.5l-9 6q-159 -181 -315 -279t-285 -98q-79 0 -125.5 46.5t-46.5 126.5q0 142 233 489q50 74 77 115 q138 211 192.5 320.5t54.5 172.5q0 64 -39.5 100.5t-109.5 36.5q-67 0 -139 -35.5t-138 -101.5q-68 -70 -105.5 -157.5t-37.5 -176.5q0 -75 33 -120t86 -45q60 0 119 51.5t100 140.5l10 -4q-44 -104 -124 -166.5t-167 -62.5q-76 0 -122 49.5t-46 134.5z" />
<glyph unicode="V" horiz-adv-x="1479" d="M-348 819q0 128 112 217t361 158q39 11 117 31q337 89 481 184l18 -29q-167 -108 -289 -515q-10 -34 -16 -52q-82 -268 -161 -433t-173 -265l9 -13q483 244 733 520t250 568v6q-21 17 -32 39t-11 49q0 52 35.5 87.5t87.5 35.5q69 0 109 -45.5t40 -124.5q0 -183 -176 -403 t-496 -435q-129 -86 -399.5 -237t-384.5 -219l-19 20q125 114 233 524q26 95 40 146q59 206 181 376.5t300 297.5l-10 16q-87 -36 -256.5 -91t-247.5 -89q-142 -62 -215.5 -142t-73.5 -174q0 -63 33.5 -103t85.5 -40q63 0 107.5 52.5t44.5 129.5q0 27 -5 53.5t-16 53.5l10 2 q13 -30 19 -57.5t6 -55.5q0 -98 -68.5 -161.5t-175.5 -63.5q-81 0 -134.5 52t-53.5 130z" />
<glyph unicode="W" horiz-adv-x="2048" d="M-385 834q0 131 110 220.5t367 162.5q37 10 118 31q301 78 482 161l17 -27q-163 -107 -308 -535l-8 -24q-87 -258 -166 -419.5t-174 -280.5q205 113 384 295.5t323 425.5q13 22 41 72q136 245 270 358q67 57 130 91t95 34q19 0 28 -8t9 -25q0 -30 -49.5 -71t-142.5 -87 q-33 -45 -66 -138.5t-74 -254.5q-66 -266 -150 -458t-183 -302q486 257 731.5 538t245.5 581q0 8 -1 19.5t-2 23.5q-23 13 -35 34t-12 47q0 49 37 83t90 34q59 0 98.5 -50.5t39.5 -127.5q0 -162 -120.5 -349.5t-346.5 -377.5q-251 -210 -680 -453q-124 -71 -178 -104l-33 27 q67 87 124 328q6 26 9 38l3 14q64 271 150 471l-6 5q-161 -256 -344 -438.5t-395 -301.5q-59 -60 -110.5 -91.5t-92.5 -31.5q-14 0 -20 5t-6 16q0 17 45 52q21 16 32 26q61 103 124.5 355.5t113.5 373.5q67 166 173 288t288 242l-2 12q-132 -43 -287.5 -90t-175.5 -55 q-176 -67 -269.5 -154t-93.5 -184q0 -69 37 -110t97 -41q57 0 98 44.5t41 106.5q0 20 -3 44.5t-9 56.5l10 2q8 -25 12 -48.5t4 -52.5q0 -91 -69.5 -157t-167.5 -66q-87 0 -142 54.5t-55 140.5z" />
<glyph unicode="X" horiz-adv-x="2048" d="M-268 168q0 63 39.5 105t97.5 42q49 0 80 -30t31 -76q0 -36 -18 -60.5t-50 -34.5v-3q0 -47 46.5 -80t113.5 -33q108 0 246 85.5t268 235.5q74 87 134.5 184t113.5 212q55 121 80.5 215t25.5 176q0 129 -62.5 202.5t-170.5 73.5q-76 0 -150 -35t-133 -98 q-67 -73 -105 -174t-38 -205q0 -118 54.5 -190t143.5 -72q104 0 186 102.5t91 254.5h12v-29q0 -33 -14.5 -82t-38.5 -96q-58 -110 -154 -175t-201 -65q-112 0 -184 77.5t-72 201.5q0 123 74 251.5t199 219.5q92 67 208 107t216 40q176 0 271 -85t95 -243q0 -23 -3 -65 q-1 -4 -1 -6q195 190 383 289.5t352 99.5q93 0 144 -35t51 -98q0 -51 -37 -87t-90 -36q-31 0 -64 15t-65 44q15 20 22 38t7 36q0 37 -26.5 58.5t-72.5 21.5q-92 0 -222.5 -85.5t-250.5 -227.5q-158 -191 -250 -408t-92 -397q0 -107 42.5 -164t121.5 -57q106 0 268.5 139 t329.5 379l12 -9q-193 -277 -382.5 -422t-358.5 -145q-126 0 -195 76t-69 215q0 26 3 54t9 61q-178 -194 -369 -296t-374 -102q-118 0 -188 54t-70 141z" />
<glyph unicode="Y" horiz-adv-x="1741" d="M-608 -319q0 112 87.5 178.5t235.5 66.5q46 0 92.5 -9.5t100.5 -29.5l-4 -12q-35 9 -57 12.5t-37 3.5q-80 0 -133.5 -67.5t-53.5 -169.5q0 -108 64 -175t168 -67q97 0 203.5 65.5t203.5 186.5q111 137 431 626l50 77l-8 6q-147 -184 -312 -290t-298 -106q-80 0 -126 47 t-46 130q0 122 226 473l24 37q20 31 59 90q248 379 248 508q0 51 -41 87.5t-98 36.5q-70 0 -142 -34t-133 -97q-69 -70 -110 -164.5t-41 -181.5q0 -74 32 -117.5t86 -43.5q56 0 112 49t99 137h15q-42 -100 -124 -166t-161 -66q-78 0 -124 51t-46 136q0 93 50 184.5 t143 169.5q101 86 209 130t219 44q122 0 196 -62t74 -165q0 -131 -273 -549q-39 -59 -59 -90q-119 -186 -165 -280t-46 -148q0 -36 24 -59t62 -23q56 0 153.5 62.5t201.5 166.5q105 106 274 362t436 718h285q-237 -347 -543.5 -851.5t-408.5 -635.5q-182 -234 -397.5 -351.5 t-461.5 -117.5q-191 0 -303 77.5t-112 209.5z" />
<glyph unicode="Z" horiz-adv-x="1479" d="M-455 -14q0 28 94 95q99 70 171 130q115 96 337.5 287.5t321.5 269.5q108 86 318 236t300 219l-10 14q-103 -71 -209 -107t-209 -36q-51 0 -108.5 8.5t-118.5 25.5q-32 10 -90 28q-144 46 -199 46q-94 0 -161.5 -66.5t-67.5 -156.5q0 -78 56.5 -129t140.5 -51 q65 0 128.5 34t108.5 95l10 -6q-44 -72 -118 -116t-148 -44q-86 0 -140 55.5t-54 143.5q0 86 37.5 164.5t107.5 138.5q68 57 150.5 87.5t168.5 30.5q102 0 288 -71q32 -13 48 -19q79 -30 131.5 -41.5t104.5 -11.5q65 0 132 18t114 48q36 57 69.5 86.5t61.5 29.5 q12 0 19 -9.5t7 -25.5q0 -15 -20.5 -33t-85.5 -57q-114 -65 -254 -192q-25 -22 -34 -30q-13 -12 -43 -38q-493 -439 -1072 -837l10 -17q68 47 138 68.5t149 21.5q111 0 310 -63l5 -2q105 -34 155 -44.5t91 -10.5q122 0 241.5 95t233.5 283l13 -6q-170 -268 -355.5 -411.5 t-359.5 -143.5q-62 0 -123.5 18t-136.5 58q-15 8 -42 23q-166 90 -261 90q-60 0 -118 -24.5t-85 -59.5q-57 -75 -79.5 -95t-39.5 -20q-14 0 -21.5 7t-7.5 20z" />
<glyph unicode="[" horiz-adv-x="797" d="M-678 -428l1116 1765h449l-6 -24h-267l-1085 -1716h260v-25h-467z" />
<glyph unicode="\" horiz-adv-x="1327" d="M188 1417h111l645 -1612h-106q-173 445 -334 845t-316 767z" />
<glyph unicode="]" horiz-adv-x="797" d="M-870 -428l4 25h266l1092 1716h-261v24h467l-1122 -1765h-446z" />
<glyph unicode="^" horiz-adv-x="2048" d="M412 897l503 565h215l502 -565h-104l-506 397l-506 -397h-104z" />
<glyph unicode="_" d="M0 -311h1024v-172h-1024v172z" />
<glyph unicode="`" d="M133 1239h204q2 -36 2.5 -69t0.5 -68q0 -63 -3.5 -130.5t-10.5 -139.5l-21 -3q-31 118 -74.5 221t-97.5 189z" />
<glyph unicode="a" horiz-adv-x="1128" d="M-481 195q0 105 57.5 210.5t161.5 186.5q83 66 178.5 102.5t181.5 36.5q76 0 119 -33.5t53 -101.5l56 104l276 17q-182 -288 -264 -439t-82 -198q0 -21 13 -36t30 -15q74 0 194.5 118t313.5 381l10 -8q-203 -289 -341.5 -414.5t-250.5 -125.5q-79 0 -127.5 49t-48.5 129 q0 9 0.5 18.5t1.5 20.5q-69 -100 -162 -158.5t-176 -58.5q-86 0 -140 59.5t-54 155.5zM-229 174q0 -49 23 -77.5t63 -28.5q44 0 89.5 34.5t98.5 108.5q80 111 125 216t45 175q0 53 -19 82t-55 29q-48 0 -97.5 -36.5t-111.5 -117.5q-72 -96 -116.5 -204t-44.5 -181z" />
<glyph unicode="b" horiz-adv-x="1090" d="M-457 203q0 104 133 328v1l486 818l289 22l-646 -1065q-38 -65 -62 -131t-24 -102q0 -37 20 -57.5t54 -20.5q115 0 239 147.5t191 379.5q-7 21 -10.5 39t-3.5 32q0 61 35 97t94 36q54 0 89.5 -44.5t35.5 -113.5q0 -21 -2.5 -42.5t-7.5 -49.5q34 -34 65.5 -49.5 t65.5 -15.5q48 0 94 28t88 84l12 -8q-39 -57 -90 -89t-104 -32q-36 0 -70.5 15t-64.5 45q-20 -72 -63.5 -141.5t-106.5 -129.5q-97 -92 -226 -148t-239 -56q-117 0 -194 64t-77 159z" />
<glyph unicode="c" horiz-adv-x="870" d="M-477 213q0 113 67.5 218.5t192.5 184.5q85 55 184.5 85t192.5 30q89 0 138.5 -33t49.5 -92q0 -69 -57.5 -116.5t-145.5 -47.5q-10 0 -18 0.5t-16 1.5q3 43 4.5 72.5t1.5 42.5q0 76 -12.5 107.5t-41.5 31.5q-26 0 -60 -26t-81 -82q-72 -89 -108.5 -179.5t-36.5 -179.5 q0 -88 45 -138t125 -50q119 0 269 120.5t331 360.5l10 -10q-192 -268 -381.5 -403.5t-374.5 -135.5q-125 0 -201.5 65.5t-76.5 172.5z" />
<glyph unicode="d" horiz-adv-x="1128" d="M-481 195q0 105 57.5 210.5t161.5 186.5q83 66 178.5 102.5t181.5 36.5q76 0 119 -33.5t53 -101.5l56 104l379 658l284 22l-387 -663q-6 -11 -78 -125t-133 -219q-69 -122 -102 -193t-33 -100q0 -21 13 -36t30 -15q74 0 194.5 118t313.5 381l10 -8 q-203 -289 -341.5 -414.5t-250.5 -125.5q-79 0 -127.5 49t-48.5 129q0 9 0.5 18.5t1.5 20.5q-69 -100 -162 -158.5t-176 -58.5q-86 0 -140 59.5t-54 155.5zM-229 174q0 -49 23 -77.5t63 -28.5q44 0 89.5 34.5t98.5 108.5q80 111 125 216t45 175q0 53 -19 82t-55 29 q-48 0 -97.5 -36.5t-111.5 -117.5q-72 -96 -116.5 -204t-44.5 -181z" />
<glyph unicode="e" horiz-adv-x="870" d="M-477 223q0 89 49.5 180.5t138.5 165.5q93 78 211 122t232 44q79 0 125.5 -34t46.5 -93q0 -96 -122 -164.5t-421 -136.5q-1 -13 -4 -36q-4 -38 -4 -50q0 -87 43 -135.5t119 -48.5q121 0 278 126t330 363l10 -8q-192 -272 -382.5 -407.5t-381.5 -135.5q-126 0 -197 66 t-71 182zM-213 324q156 34 251 128.5t95 209.5q0 23 -12 38t-31 15q-67 0 -161.5 -115t-141.5 -276z" />
<glyph unicode="f" horiz-adv-x="569" d="M-1661 -356q0 117 92.5 187.5t249.5 70.5q37 0 66.5 -2.5t56.5 -8.5l-3 -16q-5 1 -12 1.5t-20 0.5q-86 0 -144.5 -66.5t-58.5 -164.5q0 -108 63 -176t163 -68q149 0 301 154t323 479l336 639h-178l23 22h170q154 320 374.5 498t456.5 178q117 0 186.5 -49.5t69.5 -130.5 q0 -78 -63 -135.5t-152 -57.5q-26 0 -51 6.5t-49 18.5q42 46 64 99t22 112q0 48 -26.5 82.5t-61.5 34.5q-92 0 -222 -160t-311 -496h471l-22 -22h-463l-215 -441q-216 -443 -471.5 -648.5t-587.5 -205.5q-175 0 -276 71.5t-101 193.5z" />
<glyph unicode="g" horiz-adv-x="1124" d="M-1143 -348q0 111 95.5 177.5t256.5 66.5q33 0 65 -3.5t64 -9.5l-2 -14q-10 1 -21.5 1.5t-29.5 0.5q-93 0 -148 -60.5t-55 -162.5q0 -107 65 -177.5t161 -70.5q94 0 189 61.5t200 190.5q6 8 127 183.5t248 336.5l-17 10q-86 -99 -177.5 -150.5t-182.5 -51.5 q-81 0 -129.5 56t-48.5 150q0 93 47 189.5t133 179.5q90 87 194 132.5t211 45.5q67 0 109 -30t70 -97l43 96l274 11l-393 -678q153 59 302 182t294 309l12 -6q-143 -191 -301.5 -320t-321.5 -188q-167 -314 -405 -474.5t-537 -160.5q-179 0 -285 75t-106 200zM-242 162 q0 -49 22.5 -80t57.5 -31q48 0 110.5 47.5t121.5 130.5q67 93 108 200t41 179q0 51 -21 79t-59 28q-39 0 -84.5 -29t-93.5 -84q-93 -104 -148 -224.5t-55 -215.5z" />
<glyph unicode="h" horiz-adv-x="1100" d="M-621 2l775 1360l280 24l-448 -755q-48 -80 -101.5 -163t-111.5 -171l16 -8q167 232 300 344t243 112q72 0 121 -45t49 -112q0 -81 -112 -242q-25 -36 -38 -55q-54 -83 -81 -134.5t-27 -72.5q0 -20 12 -34.5t29 -14.5q71 0 190.5 121t310.5 389l15 -8 q-219 -308 -353 -432.5t-241 -124.5q-75 0 -119.5 48t-44.5 130q0 56 23.5 113t89.5 151q19 28 55 73q72 93 72 134q0 22 -18.5 36.5t-45.5 14.5q-88 0 -253 -188t-312 -476z" />
<glyph unicode="i" horiz-adv-x="588" d="M-479 156q0 50 22 117t62 137l166 292l274 11l-3 -5q-323 -526 -323 -618q0 -24 15.5 -38.5t40.5 -14.5q68 0 204 135t287 358l10 -8q-174 -262 -329.5 -401t-272.5 -139q-71 0 -112 46t-41 128zM-37 1010q0 54 40 93.5t95 39.5q56 0 94.5 -39t38.5 -94t-39.5 -95.5 t-93.5 -40.5q-53 0 -94 41t-41 95z" />
<glyph unicode="j" horiz-adv-x="588" d="M-1688 -365q0 119 96.5 189t262.5 70q34 0 63.5 -4t57.5 -13l-4 -16q-5 0 -24.5 3t-29.5 3q-89 0 -140.5 -60.5t-51.5 -164.5q0 -109 64 -178.5t163 -69.5q140 0 289.5 148.5t325.5 463.5l389 692l266 15l-387 -680q148 49 302 171.5t314 319.5l11 -6 q-156 -197 -319 -328t-325 -188q-152 -299 -393.5 -464t-525.5 -165q-189 0 -296.5 70.5t-107.5 191.5zM-53 1010q0 54 39 93.5t94 39.5t94 -39t39 -94t-39.5 -95.5t-93.5 -40.5t-93.5 41t-39.5 95z" />
<glyph unicode="k" horiz-adv-x="1100" d="M-627 -2l779 1368l284 23l-364 -613q-106 -178 -175.5 -290.5t-123.5 -192.5l14 -10q175 238 307 345t250 107q75 0 120.5 -36.5t45.5 -96.5q0 -87 -102 -143t-297 -76l-2 -14q91 -26 133.5 -60t42.5 -82q0 -25 -22.5 -76.5t-22.5 -78.5q0 -16 10.5 -27.5t23.5 -11.5 q72 0 202 127.5t304 367.5l13 -10q-213 -299 -357.5 -420t-281.5 -121q-74 0 -122 41.5t-48 104.5q0 53 43 125t43 96q0 10 -0.5 15t-1.5 9q-5 -1 -16 -5q-64 -25 -91 -25q-11 0 -21 7.5t-10 16.5q0 15 17.5 29.5t38.5 14.5q15 0 41.5 -9.5t35.5 -9.5q62 0 123.5 66 t61.5 147q0 21 -15 36t-36 15q-84 0 -245.5 -183t-303.5 -458z" />
<glyph unicode="l" horiz-adv-x="588" d="M-479 156q0 49 21.5 115.5t62.5 138.5l538 958l285 14l-655 -1130q-24 -41 -39 -86t-15 -76q0 -24 15.5 -38.5t40.5 -14.5q67 0 204 135.5t287 357.5l10 -8q-174 -262 -329.5 -401t-272.5 -139q-71 0 -112 46t-41 128z" />
<glyph unicode="m" horiz-adv-x="1616" d="M-621 2l404 709l278 10l-282 -408l18 -10q167 227 291 329.5t229 102.5q74 0 117 -41t43 -110q0 -31 -10.5 -65t-32.5 -73l8 -2q127 160 220 225.5t186 65.5q68 0 113 -44t45 -109q0 -86 -130 -280l-8 -12q-5 -7 -15 -22q-91 -136 -91 -192q0 -17 13 -29t32 -12 q66 0 191 129t302 381l17 -8q-217 -306 -353 -431.5t-243 -125.5q-75 0 -119.5 48t-44.5 130q0 56 23.5 113t87.5 147q20 29 57 78q72 94 72 129q0 22 -14.5 39.5t-32.5 17.5q-89 0 -246.5 -185t-313.5 -481l-272 -18l299 514q26 45 37.5 72.5t11.5 44.5q0 20 -15.5 36.5 t-35.5 16.5q-84 0 -249.5 -190t-311.5 -476z" />
<glyph unicode="n" horiz-adv-x="1100" d="M-621 2l404 709l278 10l-282 -408l18 -10q164 225 295.5 333.5t239.5 108.5q72 0 121 -45t49 -112q0 -81 -112 -242q-25 -36 -38 -55q-54 -83 -81 -134.5t-27 -72.5q0 -20 12 -34.5t29 -14.5q71 0 190.5 121t310.5 389l15 -8q-219 -308 -353 -432.5t-241 -124.5 q-75 0 -119.5 48t-44.5 130q0 56 23.5 113t89.5 151q19 28 55 73q72 93 72 134q0 22 -18.5 37.5t-45.5 15.5q-88 0 -253 -189t-312 -477z" />
<glyph unicode="o" horiz-adv-x="1100" d="M-455 246q0 97 43 186t125 162q85 74 190 115t210 41q110 0 179 -40t114 -128q53 -105 91.5 -136.5t94.5 -31.5q50 0 95 28t93 90l13 -6q-53 -66 -101 -95.5t-104 -29.5q-55 0 -96.5 29t-77.5 94q3 -27 4.5 -44t1.5 -25q0 -87 -48 -180.5t-130 -165.5q-75 -66 -182 -100 t-238 -34q-129 0 -203 72.5t-74 198.5zM-248 106q0 -59 20 -85.5t64 -26.5q43 0 94 36t99 101q33 44 63.5 98t61.5 125q39 93 58 158.5t19 105.5q0 54 -21.5 82.5t-62.5 28.5t-97.5 -45t-110.5 -123q-89 -127 -138 -246.5t-49 -208.5z" />
<glyph unicode="p" horiz-adv-x="1100" d="M-1014 -623l1022 1713l279 18l-312 -481q-22 -33 -69 -101t-105 -151l17 -10q127 187 238.5 278.5t213.5 91.5q85 0 136 -60t51 -161q0 -75 -31 -145.5t-100 -153.5q124 33 240 114t214 206l13 -11q-106 -133 -231.5 -217t-266.5 -117q-113 -97 -224.5 -146.5 t-217.5 -49.5q-48 0 -75.5 18t-27.5 49q0 48 54 73.5t268 53.5q69 103 103 190.5t34 162.5q0 47 -22 74.5t-60 27.5q-66 0 -172 -118.5t-229 -329.5l-476 -813zM-164 43q0 -15 11.5 -27t25.5 -12q27 0 76 43.5t110 122.5q-102 -7 -162.5 -42t-60.5 -85z" />
<glyph unicode="q" horiz-adv-x="1104" d="M-485 184q0 103 52.5 207.5t145.5 183.5q86 73 190.5 115.5t192.5 42.5q72 0 116 -30t69 -95l38 90l281 17l-393 -666q146 55 289.5 174.5t285.5 306.5l15 -6q-132 -182 -286 -311t-327 -201l-362 -645l-279 -14l293 485l4 7q110 173 230 327l-15 12 q-93 -104 -179 -156.5t-165 -52.5q-90 0 -143 57t-53 152zM-244 162q0 -49 24 -78t62 -29q47 0 103.5 43t115.5 123q71 96 113.5 202t42.5 181q0 52 -20.5 79.5t-59.5 27.5q-50 0 -103 -37t-110 -113q-76 -101 -122 -211.5t-46 -187.5z" />
<glyph unicode="r" horiz-adv-x="948" d="M-621 0l388 702l272 9l-119 -187q-21 -34 -143 -215l-33 -49l12 -8q91 136 185.5 235t181.5 152q32 46 60 64t67 22l219 23q-73 -77 -106 -138t-33 -118q0 -48 24 -76.5t64 -28.5q43 0 99 38t112 105l10 -10q-65 -89 -155 -137.5t-189 -48.5q-95 0 -153 48t-58 126 q0 22 5.5 44.5t16.5 49.5q-133 -89 -252.5 -243.5t-201.5 -346.5z" />
<glyph unicode="s" horiz-adv-x="834" d="M-582 182q0 62 46 112t102 50q46 0 76 -28.5t30 -71.5q0 -38 -24 -64t-58 -26q-10 0 -34 10q-3 1 -5 2q-6 -17 -9 -32.5t-3 -29.5q0 -50 38 -84t93 -34q71 0 120.5 50.5t49.5 125.5q0 56 -73 155q-11 15 -17 23q-44 59 -58 94t-14 72q0 98 95 167.5t229 69.5 q113 0 181.5 -43t68.5 -112q0 -49 -42.5 -85t-103.5 -36q-20 0 -59 14q-5 2 -6 2q15 24 22 50.5t7 58.5q0 57 -26 92t-67 35q-42 0 -69 -33t-27 -84q0 -66 87 -176q11 -14 18 -23q43 -54 61.5 -97.5t18.5 -86.5q0 -63 -36 -114.5t-98 -75.5l5 -13q145 38 298 173.5 t277 336.5l12 -6q-162 -271 -367.5 -414t-432.5 -143q-143 0 -224.5 58.5t-81.5 160.5z" />
<glyph unicode="t" horiz-adv-x="698" d="M-485 166q0 34 20.5 91t58.5 128l156 289h-166l19 22h164l161 271l273 16l-176 -287h270l-16 -22h-269l-205 -367q-34 -63 -53.5 -117.5t-19.5 -89.5t17.5 -54t49.5 -19q98 0 257 136.5t321 366.5l14 -6q-179 -261 -356.5 -401.5t-327.5 -140.5q-92 0 -142 47.5 t-50 136.5z" />
<glyph unicode="u" horiz-adv-x="1108" d="M-498 141q0 51 22.5 111t86.5 170l164 280l274 11l-252 -412q-40 -64 -64 -122.5t-24 -86.5q0 -22 13 -37.5t32 -15.5q76 0 189.5 117.5t230.5 322.5l125 219l276 13l-264 -447q-44 -73 -61 -115t-17 -73q0 -21 13 -36t33 -15q68 0 204.5 134.5t296.5 364.5l13 -8 q-211 -296 -349 -418.5t-258 -122.5q-69 0 -114 46.5t-45 119.5q0 22 4.5 44t13.5 46l-8 9q-104 -128 -201.5 -195.5t-179.5 -67.5q-72 0 -113 44t-41 120z" />
<glyph unicode="v" horiz-adv-x="1096" d="M-451 207q0 52 19.5 110.5t60.5 131.5l140 245l276 17q-204 -325 -260.5 -444t-56.5 -189q0 -36 21.5 -59t53.5 -23q114 0 243.5 159.5t176.5 387.5q-8 14 -12 29t-4 32q0 49 35 84t84 35q65 0 101 -43t36 -121q0 -16 -2.5 -36t-7.5 -50q26 -30 62 -46.5t71 -16.5 q48 0 95 29t93 87l10 -8q-42 -60 -95 -92.5t-109 -32.5q-33 0 -66.5 14t-67.5 42q-24 -87 -80.5 -167t-138.5 -145q-89 -70 -210.5 -115t-219.5 -45q-116 0 -182 61.5t-66 168.5z" />
<glyph unicode="w" horiz-adv-x="1593" d="M-483 154q0 84 107 275q12 22 18 32l131 233l278 17q-224 -355 -282 -466t-58 -161q0 -27 15 -43t41 -16q67 0 168.5 103t197.5 275l166 297l272 7l-31 -51q-313 -492 -313 -595q0 -31 20 -50t52 -19q108 0 237 155.5t181 374.5q-7 17 -10.5 34.5t-4.5 37.5q0 55 32.5 91 t80.5 36q65 0 106.5 -45t41.5 -117q0 -21 -3.5 -43t-9.5 -45q26 -30 57.5 -45.5t65.5 -15.5q49 0 98 28t93 82l10 -8q-38 -54 -94 -86.5t-111 -32.5q-36 0 -67 13t-60 40q-23 -82 -78.5 -159t-140.5 -144q-99 -78 -220 -125t-222 -47q-107 0 -171.5 53t-64.5 138 q0 18 4 39.5t12 48.5h-6q-89 -131 -184 -199.5t-186 -68.5q-74 0 -121 48t-47 124z" />
<glyph unicode="x" horiz-adv-x="1139" d="M-721 150q0 68 39.5 112.5t99.5 44.5q43 0 72 -26.5t29 -65.5q0 -36 -21.5 -60t-54.5 -24q-9 0 -18.5 1.5t-20.5 4.5q-6 -13 -9 -24t-3 -23q0 -42 30.5 -68t81.5 -26q66 0 141 46.5t142 129.5q76 93 120 194t44 179q0 50 -22.5 76t-65.5 26t-89 -35t-96 -106l-10 8 q67 104 141 155.5t156 51.5q86 0 134.5 -49.5t52.5 -140.5q109 91 203.5 138.5t166.5 47.5q71 0 112.5 -34.5t41.5 -92.5q0 -60 -43 -100.5t-107 -40.5q-16 0 -34 4.5t-37 13.5q25 48 38 88t13 72q0 27 -14 44t-35 17q-30 0 -74 -30t-96 -87q-87 -94 -134 -195.5t-47 -195.5 q0 -60 38.5 -98.5t99.5 -38.5q108 0 252.5 123t314.5 360l12 -8q-181 -265 -359.5 -401.5t-342.5 -136.5q-102 0 -158.5 46.5t-56.5 129.5q0 11 0.5 17t1.5 11q-83 -96 -195.5 -150t-228.5 -54q-93 0 -149 46.5t-56 123.5z" />
<glyph unicode="y" horiz-adv-x="1096" d="M-1176 -348q0 111 95.5 177.5t257.5 66.5q32 0 64 -3.5t65 -9.5l-3 -14q-10 1 -21.5 1.5t-29.5 0.5q-92 0 -146 -60t-54 -163q0 -107 64.5 -177.5t160.5 -70.5q94 0 190.5 62t198.5 190q46 57 187.5 274t220.5 334l-15 10q-106 -141 -210.5 -217t-192.5 -76 q-72 0 -113 44t-41 120q0 51 22.5 111t86.5 170l162 280l276 11l-252 -412q-40 -64 -64 -122.5t-24 -86.5q0 -22 13 -37.5t32 -15.5q77 0 192.5 120.5t223.5 319.5l121 223l276 11l-395 -678q153 59 302 182t294 309l12 -6q-144 -192 -301 -321t-319 -187 q-168 -314 -406.5 -474.5t-537.5 -160.5q-180 0 -286 75t-106 200z" />
<glyph unicode="z" horiz-adv-x="922" d="M-573 4q0 25 94 78.5t157 99.5q17 12 58 49q208 182 430 283l-4 10q-36 -12 -74 -18t-80 -6q-58 0 -134.5 18.5t-100.5 18.5q-33 0 -58.5 -11t-46.5 -32l-12 12q79 121 145 169t148 48q73 0 179 -41t142 -41q12 0 29 3.5t41 10.5q21 50 42.5 74.5t43.5 24.5q11 0 18 -7 t7 -18q0 -23 -103 -99q-84 -61 -139 -106h-1q-261 -209 -452 -307l4 -8q6 0 33 1t49 1q50 0 148 -30.5t149 -30.5q107 0 204.5 77t254.5 303l12 -6q-171 -255 -347.5 -402t-309.5 -147q-38 0 -78 12.5t-88 39.5q-14 7 -40 22q-86 49 -122 49q-26 0 -48.5 -14t-45.5 -45 q-3 -4 -8 -11q-37 -51 -68 -51q-14 0 -21 7t-7 20z" />
<glyph unicode="{" d="M178 602v68q159 15 216 76t57 223v200q0 200 84.5 273.5t314.5 73.5v-57q-128 -2 -175.5 -55t-47.5 -210v-137q0 -225 -56.5 -307.5t-208.5 -114.5q152 -32 208.5 -114.5t56.5 -307.5v-137q0 -157 47 -209t176 -54v-57h-10q-222 0 -305.5 74t-83.5 272v201 q0 161 -58 223.5t-215 75.5z" />
<glyph unicode="|" d="M424 -483v2048h178v-2048h-178z" />
<glyph unicode="}" d="M174 -187q129 2 176 54t47 209v137q0 227 56.5 308.5t208.5 113.5q-151 32 -208 113.5t-57 308.5v137q0 157 -47.5 210t-175.5 55v57h10q223 0 307 -74.5t84 -272.5v-200q0 -162 57 -223t216 -76v-68q-157 -13 -215 -74.5t-58 -224.5v-201q0 -197 -84 -271.5t-307 -74.5 h-10v57z" />
<glyph unicode="~" horiz-adv-x="1706" d="M178 434v187q106 72 202 107.5t185 35.5q62 0 125.5 -12t168.5 -48q13 -4 42 -15q164 -58 250 -58q85 0 177 37t202 116v-184q-103 -71 -197.5 -106t-183.5 -35q-44 0 -92.5 8.5t-98.5 26.5q-25 8 -76 26q-212 74 -319 74q-82 0 -174 -38t-211 -122z" />
<glyph unicode="&#xa1;" horiz-adv-x="834" d="M-328 115q0 90 183 276l47 47q100 102 172.5 196t126.5 191l20 -8q-47 -81 -92.5 -191.5t-85.5 -240.5q-13 -43 -35 -119q-42 -142 -61 -180q-26 -49 -62 -74.5t-78 -25.5q-55 0 -95 37.5t-40 91.5zM164 973q0 55 41.5 96t97.5 41t96.5 -41t40.5 -96q0 -56 -40.5 -96.5 t-96.5 -40.5q-58 0 -98.5 40t-40.5 97z" />
<glyph unicode="&#xa2;" horiz-adv-x="1176" d="M-250 213q0 193 182 346t445 170l69 133l21 -8l-70 -125q83 0 130.5 -33t47.5 -90q0 -67 -59 -115.5t-145 -48.5q-10 0 -17 0.5t-16 2.5q0 3 1 12q7 72 7 102q0 13 -1 29t-3 40l-291 -536q22 -25 52 -37t69 -12q82 0 176 54.5t203 164.5l12 -12q-125 -131 -263.5 -203 t-264.5 -72q-10 0 -25.5 1t-21.5 1l-68 -129l-20 11l67 121q-107 23 -162 82t-55 151zM4 223q0 -36 8.5 -66t24.5 -48l299 551q-6 18 -17.5 28t-27.5 10q-26 0 -61 -27t-80 -81q-75 -90 -110.5 -179.5t-35.5 -187.5z" />
<glyph unicode="&#xa3;" horiz-adv-x="2048" d="M-520 96q0 51 58 78t167 27q96 0 214.5 -15.5t279.5 -48.5q68 40 135.5 139.5t138.5 266.5q-122 5 -239.5 7.5t-231.5 2.5h-104l10 16l577 6l25 51q201 418 324 548q105 112 233.5 172.5t263.5 60.5q147 0 228 -76.5t81 -214.5q0 -160 -107 -270.5t-261 -110.5 q-88 0 -142.5 45.5t-54.5 116.5q0 91 78.5 178t208.5 137l6 -10q-127 -56 -199.5 -136.5t-72.5 -162.5q0 -53 28 -85t76 -32q50 0 108.5 39.5t106.5 108.5q50 70 78.5 150.5t28.5 148.5q0 70 -35.5 111.5t-93.5 41.5q-155 0 -310 -190.5t-343 -615.5q139 -6 262 -8.5 t237 -2.5l-6 -16q-132 0 -260.5 -1.5t-253.5 -4.5q-93 -163 -210.5 -267t-258.5 -149q111 -25 213 -37t196 -12q256 0 416 91.5t252 291.5l16 -4q-128 -252 -321 -388t-422 -136q-96 0 -221 26t-283 80q-87 -35 -176.5 -53.5t-175.5 -18.5q-121 0 -192.5 34.5t-71.5 90.5z M-498 96q0 -49 68.5 -78.5t183.5 -29.5q85 0 161.5 17t143.5 50q-130 51 -246.5 79t-195.5 28q-57 0 -86 -16.5t-29 -49.5z" />
<glyph unicode="&#xa4;" horiz-adv-x="1176" d="M-375 623l15 22h143q14 34 26.5 59.5t24.5 47.5h-129l16 22h125q51 88 119 170.5t148 155.5q171 157 347.5 235t360.5 78q113 0 180.5 -59.5t67.5 -159.5q0 -127 -106.5 -226.5t-243.5 -99.5q-91 0 -147 52t-56 135q0 49 19 93t55 77l10 -8q-33 -36 -49 -76t-16 -84 q0 -66 38 -108t97 -42q50 0 95 30t87 91q35 53 55.5 114.5t20.5 114.5q0 64 -32 100t-89 36q-97 0 -210 -57.5t-222 -161.5q-90 -88 -164 -189t-127 -211h598l-14 -22h-596q-11 -24 -22 -50.5t-21 -56.5h569l-16 -22h-562q-25 -78 -38 -152.5t-13 -142.5q0 -154 59 -244 t158 -90q94 0 169 65t116 179q17 44 25 85t8 83q0 29 -4.5 62t-13.5 70q75 -29 116 -86.5t41 -132.5q0 -20 -3 -40.5t-9 -42.5q-36 -126 -168 -202.5t-305 -76.5q-190 0 -313.5 114t-123.5 298q0 58 13 121.5t39 132.5h-148z" />
<glyph unicode="&#xa5;" horiz-adv-x="1176" d="M-418 408l12 22h377l-24 244h-250l12 22h234l-33 320h-139l12 22h483l-12 -22h-127l31 -320h325l183 187q30 30 43.5 51.5t13.5 38.5q0 13 -5.5 23.5t-17.5 19.5l-106 6l6 16h397l-10 -16l-137 -10q-31 -17 -62 -41.5t-61 -55.5l-205 -219h246l-12 -22h-256l-238 -244 h346l-14 -22h-354l-43 -37l-144 -348h158l-12 -23h-545l16 23h152l155 356l-2 29h-393zM162 674l28 -277l271 277h-299z" />
<glyph unicode="&#xa6;" d="M424 -350v758h178v-758h-178zM424 674v758h178v-758h-178z" />
<glyph unicode="&#xa7;" d="M-463 143q0 90 73.5 147.5t188.5 57.5h27q-75 -40 -112.5 -94t-37.5 -123q0 -91 61.5 -151t156.5 -60q104 0 172.5 57t68.5 144q0 60 -26 123.5t-105 179.5q-79 115 -107 181.5t-28 127.5q0 122 89.5 194t281.5 105q-15 32 -22 61.5t-7 57.5q0 127 107.5 207t281.5 80 q131 0 213 -57.5t82 -145.5q0 -68 -55.5 -113t-144.5 -46q32 40 46.5 76t14.5 75q0 82 -46.5 135t-117.5 53q-83 0 -140 -65.5t-57 -159.5q0 -49 28 -114t107 -189q74 -115 95.5 -168t21.5 -101q0 -118 -94 -196t-285 -117q12 -36 16.5 -60t4.5 -44q0 -134 -119 -219.5 t-309 -85.5q-143 0 -233.5 70.5t-90.5 176.5zM41 778q0 -90 122 -292q61 -101 93 -160q101 15 153 75t52 162q0 101 -128 310q-55 89 -83 141q-95 -6 -152 -71t-57 -165z" />
<glyph unicode="&#xa8;" d="M-10 1022q0 41 32.5 73.5t73.5 32.5q44 0 76.5 -32t32.5 -74q0 -47 -31 -79t-78 -32q-44 0 -75 32.5t-31 78.5zM387 1022q0 41 32.5 73.5t74.5 32.5q43 0 75.5 -32t32.5 -74q0 -47 -31 -79t-77 -32q-45 0 -76 32.5t-31 78.5z" />
<glyph unicode="&#xa9;" horiz-adv-x="1683" d="M121 678q0 143 54 274.5t157 235.5q102 102 235 157.5t277 55.5q140 0 272.5 -55.5t233.5 -155.5q101 -102 157 -235.5t56 -276.5q0 -142 -55.5 -274t-157.5 -236q-101 -102 -231 -155.5t-277 -53.5q-145 0 -274.5 53t-233.5 156q-104 104 -158.5 234.5t-54.5 275.5z M219 678q0 -126 47.5 -239.5t136.5 -202.5q91 -91 201.5 -137t237.5 -46q126 0 238.5 47t199.5 136q88 89 136 204.5t48 237.5q0 124 -48 241.5t-136 204.5q-86 86 -200 133.5t-236 47.5q-126 0 -241 -48t-202 -137q-88 -90 -135 -203.5t-47 -238.5zM416 670 q0 184 119.5 309t295.5 125q80 0 154 -33t78 -33q28 0 41.5 14t19.5 48h41l2 -320h-47q-32 134 -102 203.5t-172 69.5q-116 0 -176 -94t-60 -275q0 -184 65 -281.5t189 -97.5q82 0 151 43.5t126 130.5l43 -26q-63 -108 -150 -160.5t-200 -52.5q-177 0 -297.5 124t-120.5 306 z" />
<glyph unicode="&#xaa;" horiz-adv-x="797" d="M150 1053q0 74 41 147t114 129q62 47 129.5 72.5t128.5 25.5q53 0 83 -23.5t38 -70.5l41 76l197 8q-126 -193 -187 -303t-61 -143q0 -14 10 -24.5t23 -10.5q53 0 138.5 82.5t223.5 267.5l10 -6q-142 -202 -242.5 -290.5t-185.5 -88.5q-56 0 -90.5 35.5t-34.5 93.5 q0 7 0.5 12t1.5 10q-48 -68 -114 -109.5t-125 -41.5q-62 0 -100.5 42t-38.5 110zM334 1036q0 -30 15.5 -48.5t41.5 -18.5q31 0 60 21.5t71 78.5q55 74 86 145t31 119q0 36 -13 55t-38 19q-35 0 -68.5 -24.5t-73.5 -77.5q-54 -72 -83 -142t-29 -127z" />
<glyph unicode="&#xab;" d="M-348 319l463 349l10 -15l-275 -334l74 -321l-12 -10zM-16 319l462 349l11 -15l-275 -334l74 -321l-12 -10z" />
<glyph unicode="&#xac;" horiz-adv-x="1706" d="M254 696v166h1198v-502h-166v336h-1032z" />
<glyph unicode="&#xad;" horiz-adv-x="967" d="M-251 334l103 165q86 -2 156.5 -3.5t126.5 -1.5q43 0 174 2q53 1 82 2l-100 -166q-25 0 -73 1q-160 3 -216 3q-82 0 -139 -0.5t-114 -1.5z" />
<glyph unicode="&#xae;" horiz-adv-x="1683" d="M121 678q0 143 54.5 275t156.5 235q102 102 235 157.5t277 55.5t279 -57t235 -160q98 -102 151.5 -235.5t53.5 -278.5q0 -138 -59.5 -272.5t-166.5 -239.5q-101 -100 -228 -149.5t-282 -49.5q-135 0 -264 54.5t-229 154.5q-105 104 -159 234t-54 276zM219 678 q0 -126 47.5 -239.5t136.5 -202.5q91 -91 201.5 -137t237.5 -46q126 0 238.5 47t199.5 136q89 90 136.5 204.5t47.5 237.5q0 122 -48.5 240t-135.5 206q-86 86 -200 133.5t-236 47.5q-126 0 -241 -48t-202 -137q-89 -90 -135.5 -203t-46.5 -239zM467 287v46q64 4 88.5 24.5 t24.5 72.5v520q0 52 -23.5 72t-89.5 25v49h399q145 0 232.5 -55t87.5 -142q0 -84 -65.5 -133t-217.5 -76q96 -25 147.5 -73t69.5 -127q6 -24 10 -67q9 -91 54 -91q29 0 44 34t15 99h49v-23q0 -85 -43 -129.5t-127 -44.5q-46 0 -80 14.5t-53 43.5q-24 39 -27 111.5t-8 93.5 q-16 74 -60.5 109.5t-121.5 35.5h-24v-246q0 -49 22.5 -69.5t85.5 -26.5v-47h-389zM748 723q14 -1 27 -1.5t26 -0.5q100 0 154.5 44t54.5 126q0 70 -46.5 114t-121.5 44q-47 0 -70.5 -17.5t-23.5 -50.5v-258z" />
<glyph unicode="&#xaf;" d="M-10 950l69 137q84 -3 144 -4.5t96 -1.5q44 0 108.5 1.5t149.5 4.5l-70 -137q-47 1 -128 2.5t-103 1.5q-48 0 -189 -2q-50 -1 -77 -2z" />
<glyph unicode="&#xb0;" horiz-adv-x="674" d="M43 1163q0 125 86 211t209 86t209 -87t86 -210q0 -121 -87 -208t-210 -87t-208 85.5t-85 209.5zM152 1165q0 -76 54.5 -131t131.5 -55t130.5 54.5t53.5 131.5t-53.5 131t-130.5 54t-131.5 -54t-54.5 -131z" />
<glyph unicode="&#xb1;" horiz-adv-x="1706" d="M254 14v168h1198v-168h-1198zM254 707v165h514v334h170v-334h514v-165h-514v-334h-170v334h-514z" />
<glyph unicode="&#xb2;" horiz-adv-x="776" d="M-340 428q0 18 79.5 68.5t213.5 115.5q31 16 87 42q89 40 118 59q61 41 92 88.5t31 101.5q0 60 -41 100.5t-101 40.5q-53 0 -91 -34.5t-38 -81.5q0 -38 26.5 -64t63.5 -26q21 0 36 11t20 29l5 -1q-3 -54 -42.5 -89.5t-93.5 -35.5q-52 0 -85.5 30.5t-33.5 77.5 q0 37 25.5 74.5t74.5 71.5q50 32 102.5 47.5t110.5 15.5q105 0 170.5 -47.5t65.5 -122.5q0 -79 -68.5 -134.5t-221.5 -99.5q-9 -2 -31 -8q-174 -45 -265 -98l4 -6q20 6 39 9t37 3q56 0 141 -18.5t119 -18.5q71 0 117.5 36.5t76.5 115.5l13 -2q-50 -120 -136 -189t-186 -69 q-53 0 -188 46l-2 1q-40 15 -69 22t-52 7q-11 0 -31 -6q-6 -2 -8 -3q-16 -49 -27.5 -61t-31.5 -12q-13 0 -19 3.5t-6 10.5z" />
<glyph unicode="&#xb3;" horiz-adv-x="776" d="M-299 584q0 51 40.5 89t96.5 38q49 0 85.5 -25t49.5 -68l-8 -1q-2 11 -13.5 17.5t-29.5 6.5q-37 0 -62.5 -27t-25.5 -67q0 -51 41.5 -86t101.5 -35q86 0 152 62t66 143q0 57 -35 87t-101 30q-24 0 -45.5 -2t-42.5 -7l6 19h33q167 0 250.5 45.5t83.5 136.5 q0 50 -30.5 81.5t-77.5 31.5q-45 0 -73 -26.5t-28 -68.5q0 -29 17.5 -48t44.5 -19q18 0 29.5 10t13.5 27l8 -2q0 -46 -36.5 -78.5t-86.5 -32.5q-44 0 -73 27t-29 67q0 65 80.5 113.5t193.5 48.5q92 0 147.5 -36t55.5 -95q0 -73 -81.5 -117.5t-240.5 -58.5l-4 -12 q95 -2 146 -35t51 -92q0 -88 -108 -149.5t-271 -61.5q-131 0 -211 47.5t-80 122.5z" />
<glyph unicode="&#xb4;" d="M139 834q52 96 107.5 190t115.5 186l273 4q-136 -103 -255.5 -199.5t-221.5 -185.5z" />
<glyph unicode="&#xb5;" horiz-adv-x="1184" d="M-109 -319q0 52 69 282.5t108 409.5l108 512h207l-100 -467q-10 -46 -15.5 -82t-5.5 -57q0 -64 37 -101t102 -37q87 0 139 53.5t76 167.5l111 523h209l-113 -533l-3 -15q-15 -70 -15 -110q0 -42 22.5 -66t63.5 -24q40 0 71 21.5t58 68.5q9 17 23 49q25 60 51 60 q11 0 16.5 -7.5t5.5 -23.5q0 -28 -17 -85.5t-40 -100.5q-41 -72 -95.5 -108t-123.5 -36q-84 0 -129.5 55t-47.5 156q-42 -104 -109.5 -157.5t-156.5 -53.5q-99 0 -156.5 58t-68.5 168q-23 -124 -48 -315q-39 -306 -134 -306q-47 0 -73 26.5t-26 74.5z" />
<glyph unicode="&#xb6;" d="M55 1130q0 158 107 253.5t284 95.5h523v-99h-117v-1380h-129v1380h-168v-1380h-131v784q-168 6 -268.5 101t-100.5 245z" />
<glyph unicode="&#xb7;" horiz-adv-x="588" d="M-236 530q0 55 39.5 95.5t94.5 40.5t95 -40t40 -96q0 -54 -40.5 -93.5t-94.5 -39.5t-94 40t-40 93z" />
<glyph unicode="&#xb8;" d="M-500 -532q144 13 223.5 63.5t79.5 126.5q0 41 -28.5 64.5t-77.5 23.5q-8 0 -18 -1.5t-25 -4.5l162 254h22l-76 -117h13h22q68 0 108 -38.5t40 -104.5q0 -116 -121 -193.5t-324 -89.5v17z" />
<glyph unicode="&#xb9;" horiz-adv-x="776" d="M-119 424l314 489q-75 -34 -145.5 -59t-139.5 -41l-6 18q166 40 305.5 101t249.5 141l10 -10l-395 -625z" />
<glyph unicode="&#xba;" horiz-adv-x="797" d="M193 1083q0 140 120.5 246.5t278.5 106.5q77 0 127.5 -29t81.5 -90q38 -74 65 -95.5t66 -21.5q34 0 67 20.5t66 63.5l12 -10q-41 -49 -75 -68.5t-72 -19.5q-43 0 -73 21.5t-52 65.5q1 -12 1.5 -23.5t0.5 -24.5q0 -135 -118 -233.5t-292 -98.5q-98 0 -151 49.5t-53 140.5z M342 989q0 -41 13.5 -59.5t43.5 -18.5t63.5 25t65.5 70q59 80 98.5 179.5t39.5 153.5q0 36 -15.5 56t-42.5 20q-28 0 -65 -29t-70 -79q-66 -99 -98.5 -177t-32.5 -141z" />
<glyph unicode="&#xbb;" d="M-436 2l272 334l-74 321l13 11l260 -332l-463 -348zM-104 2l272 334l-72 321l10 11l261 -332l-463 -348z" />
<glyph unicode="&#xbc;" horiz-adv-x="1575" d="M-317 -49q276 321 534 628t500 605l164 16q-272 -313 -531.5 -622t-507.5 -613zM-285 506l310 526q-66 -34 -136.5 -61.5t-144.5 -46.5l-6 24q161 41 297.5 106.5t247.5 153.5l10 -10l-387 -674zM297 211l567 569l135 8l-641 -542l324 4l223 389l187 20l-240 -405l143 4 l-16 -27l-139 5l-123 -230l-193 -16l144 241q-85 0 -176 -5t-195 -15z" />
<glyph unicode="&#xbd;" horiz-adv-x="1575" d="M-317 -49q276 321 534 628t500 605l164 16q-272 -313 -531.5 -622t-507.5 -613zM-285 506l310 526q-66 -34 -136.5 -61.5t-144.5 -46.5l-6 24q161 41 297.5 106.5t247.5 153.5l10 -10l-387 -674zM270 -10q0 24 61 68t189 114q25 13 71 38q288 151 288 290q0 64 -41 108.5 t-99 44.5q-52 0 -87.5 -35t-35.5 -86q0 -42 24.5 -69t61.5 -27q21 0 36 12t18 31h10v-16q0 -42 -42 -80.5t-95 -38.5q-51 0 -84 32t-33 83q0 87 93 157t222 70q98 0 162 -52t64 -132q0 -83 -66.5 -142.5t-222.5 -111.5q-20 -7 -60 -20q-160 -52 -229 -95l4 -6 q19 7 36.5 10.5t37.5 3.5q56 0 139 -20.5t113 -20.5q68 0 114 41t74 125l17 -2q-43 -127 -129 -203.5t-185 -76.5q-57 0 -159 41t-144 41q-7 0 -14.5 -2t-22.5 -9q-14 -50 -27 -62.5t-40 -12.5q-9 0 -14 2.5t-5 7.5z" />
<glyph unicode="&#xbe;" horiz-adv-x="1864" d="M-301 686q0 57 39.5 97t95.5 40q51 0 84.5 -24.5t48.5 -73.5l-10 -4q-6 11 -18 16.5t-31 5.5q-31 0 -54.5 -27t-23.5 -65q0 -54 41 -92.5t100 -38.5q83 0 148 68t65 151q0 57 -35 88t-98 31q-23 0 -44 -2t-42 -6l6 24h52q148 0 227.5 50t79.5 143q0 53 -30.5 88t-76.5 35 q-42 0 -70 -29t-28 -71q0 -32 17.5 -52t43.5 -20q18 0 30 11t14 28h11q-1 -50 -37 -84.5t-85 -34.5q-45 0 -74 27.5t-29 70.5q0 71 79.5 124.5t189.5 53.5q89 0 143.5 -39.5t54.5 -103.5q0 -79 -77.5 -126.5t-237.5 -65.5l-4 -10q93 -4 142.5 -40t49.5 -100 q0 -94 -106.5 -160.5t-265.5 -66.5q-130 0 -207.5 51t-77.5 133zM-29 -49q299 346 554.5 650t482.5 583l163 16q-265 -305 -524.5 -613.5t-515.5 -621.5zM588 211l567 569l135 8l-641 -542l324 4l223 389l186 20l-239 -405l143 4l-16 -27l-140 5l-124 -230l-191 -16l143 241 q-84 0 -175 -5t-195 -15z" />
<glyph unicode="&#xbf;" d="M-258 258q0 120 88 204t332 179l2 1q176 67 233 159l17 -8q-40 -61 -138 -128q-18 -12 -26 -18q-163 -112 -213.5 -187t-50.5 -171q0 -103 65.5 -175.5t157.5 -72.5q76 0 123 51t47 133q0 68 -33 110t-86 42q-45 0 -72.5 -33t-27.5 -88v-10h-14q-2 8 -2.5 16.5t-0.5 24.5 q0 100 59.5 167.5t145.5 67.5q74 0 121 -50.5t47 -129.5q0 -70 -39.5 -136.5t-114.5 -121.5q-65 -48 -145 -75t-158 -27q-140 0 -228.5 77.5t-88.5 198.5zM375 944q0 56 41 96.5t98 40.5q56 0 96.5 -41t40.5 -96q0 -56 -40.5 -96.5t-96.5 -40.5q-58 0 -98.5 40t-40.5 97z " />
<glyph unicode="&#xc0;" horiz-adv-x="1933" d="M-602 197q0 72 40.5 118.5t102.5 46.5q47 0 77 -30.5t30 -79.5q0 -43 -21.5 -69.5t-56.5 -26.5q-2 0 -7 1t-7 1q9 -64 63 -99.5t141 -35.5q75 0 165.5 35t183.5 100q139 99 435 418q50 55 77 83q320 347 567.5 517.5t531.5 257.5l17 -23q-355 -375 -556.5 -718.5 t-201.5 -559.5q0 -58 18 -86.5t56 -28.5q84 0 243 141t312 365l12 -8q-177 -259 -360.5 -406t-325.5 -147q-94 0 -147.5 56.5t-53.5 156.5q0 88 34.5 201.5t96.5 230.5h-270q-303 -346 -512.5 -490.5t-398.5 -144.5q-127 0 -206 63t-79 161zM612 625h260q90 160 205.5 306 t311.5 337l-5 12q-192 -101 -385 -265t-387 -390zM1571 1880h204q2 -36 2.5 -69t0.5 -68q0 -63 -3.5 -130.5t-10.5 -139.5l-21 -3q-31 118 -74.5 221t-97.5 189z" />
<glyph unicode="&#xc1;" horiz-adv-x="1933" d="M-602 197q0 72 40.5 118.5t102.5 46.5q47 0 77 -30.5t30 -79.5q0 -43 -21.5 -69.5t-56.5 -26.5q-2 0 -7 1t-7 1q9 -64 63 -99.5t141 -35.5q75 0 165.5 35t183.5 100q139 99 435 418q50 55 77 83q320 347 567.5 517.5t531.5 257.5l17 -23q-355 -375 -556.5 -718.5 t-201.5 -559.5q0 -58 18 -86.5t56 -28.5q84 0 243 141t312 365l12 -8q-177 -259 -360.5 -406t-325.5 -147q-94 0 -147.5 56.5t-53.5 156.5q0 88 34.5 201.5t96.5 230.5h-270q-303 -346 -512.5 -490.5t-398.5 -144.5q-127 0 -206 63t-79 161zM612 625h260q90 160 205.5 306 t311.5 337l-5 12q-192 -101 -385 -265t-387 -390zM1577 1475q52 96 107.5 190t115.5 186l273 4q-136 -103 -255.5 -199.5t-221.5 -185.5z" />
<glyph unicode="&#xc2;" horiz-adv-x="1933" d="M-602 197q0 72 40.5 118.5t102.5 46.5q47 0 77 -30.5t30 -79.5q0 -43 -21.5 -69.5t-56.5 -26.5q-2 0 -7 1t-7 1q9 -64 63 -99.5t141 -35.5q75 0 165.5 35t183.5 100q139 99 435 418q50 55 77 83q320 347 567.5 517.5t531.5 257.5l17 -23q-355 -375 -556.5 -718.5 t-201.5 -559.5q0 -58 18 -86.5t56 -28.5q84 0 243 141t312 365l12 -8q-177 -259 -360.5 -406t-325.5 -147q-94 0 -147.5 56.5t-53.5 156.5q0 88 34.5 201.5t96.5 230.5h-270q-303 -346 -512.5 -490.5t-398.5 -144.5q-127 0 -206 63t-79 161zM612 625h260q90 160 205.5 306 t311.5 337l-5 12q-192 -101 -385 -265t-387 -390zM1364 1493l398 430l151 2q-24 -52 -35.5 -97t-11.5 -89q0 -73 25 -132t73 -98l-4 -14q-114 27 -176 94t-63 164q-88 -64 -173.5 -132.5t-170.5 -141.5z" />
<glyph unicode="&#xc3;" horiz-adv-x="1933" d="M-602 197q0 72 40.5 118.5t102.5 46.5q47 0 77 -30.5t30 -79.5q0 -43 -21.5 -69.5t-56.5 -26.5q-2 0 -7 1t-7 1q9 -64 63 -99.5t141 -35.5q75 0 165.5 35t183.5 100q139 99 435 418q50 55 77 83q320 347 567.5 517.5t531.5 257.5l17 -23q-355 -375 -556.5 -718.5 t-201.5 -559.5q0 -58 18 -86.5t56 -28.5q84 0 243 141t312 365l12 -8q-177 -259 -360.5 -406t-325.5 -147q-94 0 -147.5 56.5t-53.5 156.5q0 88 34.5 201.5t96.5 230.5h-270q-303 -346 -512.5 -490.5t-398.5 -144.5q-127 0 -206 63t-79 161zM612 625h260q90 160 205.5 306 t311.5 337l-5 12q-192 -101 -385 -265t-387 -390zM1377 1534q22 125 61.5 178t108.5 53q41 0 140.5 -40t156.5 -40q51 0 78.5 20.5t64.5 88.5l24 -8q-49 -147 -90 -193.5t-108 -46.5q-52 0 -155 45t-150 45q-43 0 -70.5 -27t-38.5 -79z" />
<glyph unicode="&#xc4;" horiz-adv-x="1933" d="M-602 197q0 72 40.5 118.5t102.5 46.5q47 0 77 -30.5t30 -79.5q0 -43 -21.5 -69.5t-56.5 -26.5q-2 0 -7 1t-7 1q9 -64 63 -99.5t141 -35.5q75 0 165.5 35t183.5 100q139 99 435 418q50 55 77 83q320 347 567.5 517.5t531.5 257.5l17 -23q-355 -375 -556.5 -718.5 t-201.5 -559.5q0 -58 18 -86.5t56 -28.5q84 0 243 141t312 365l12 -8q-177 -259 -360.5 -406t-325.5 -147q-94 0 -147.5 56.5t-53.5 156.5q0 88 34.5 201.5t96.5 230.5h-270q-303 -346 -512.5 -490.5t-398.5 -144.5q-127 0 -206 63t-79 161zM612 625h260q90 160 205.5 306 t311.5 337l-5 12q-192 -101 -385 -265t-387 -390zM1428 1663q0 41 32.5 73.5t73.5 32.5q44 0 76.5 -32t32.5 -74q0 -47 -31 -79t-78 -32q-44 0 -75 32.5t-31 78.5zM1825 1663q0 41 32.5 73.5t74.5 32.5q43 0 75.5 -32t32.5 -74q0 -47 -31 -79t-77 -32q-45 0 -76 32.5 t-31 78.5z" />
<glyph unicode="&#xc5;" horiz-adv-x="1933" d="M-602 197q0 72 40.5 118.5t102.5 46.5q47 0 77 -30.5t30 -79.5q0 -43 -21.5 -69.5t-56.5 -26.5q-2 0 -7 1t-7 1q9 -64 63 -99.5t141 -35.5q75 0 165.5 35t183.5 100q139 99 435 418q50 55 77 83q320 347 567.5 517.5t531.5 257.5l17 -23q-355 -375 -556.5 -718.5 t-201.5 -559.5q0 -58 18 -86.5t56 -28.5q84 0 243 141t312 365l12 -8q-177 -259 -360.5 -406t-325.5 -147q-94 0 -147.5 56.5t-53.5 156.5q0 88 34.5 201.5t96.5 230.5h-270q-303 -346 -512.5 -490.5t-398.5 -144.5q-127 0 -206 63t-79 161zM612 625h260q90 160 205.5 306 t311.5 337l-5 12q-192 -101 -385 -265t-387 -390zM1509 1700q0 91 79 158t186 67q78 0 121.5 -39t43.5 -108q0 -87 -78.5 -156.5t-179.5 -69.5q-77 0 -124.5 41t-47.5 107zM1593 1638q0 -31 17.5 -50t46.5 -19q28 0 59.5 21.5t61.5 62.5q35 48 56 99t21 85q0 31 -17.5 51.5 t-43.5 20.5q-30 0 -62.5 -21.5t-60.5 -58.5q-35 -48 -56.5 -100.5t-21.5 -90.5z" />
<glyph unicode="&#xc6;" horiz-adv-x="2048" d="M-545 150q0 50 39.5 89.5t91.5 39.5q48 0 79.5 -30.5t31.5 -76.5q0 -18 -8 -38.5t-27 -49.5q17 -23 45 -34t70 -11q110 0 258.5 118t372.5 388l32 39q336 405 615 604q-73 8 -161 12t-187 4q-246 0 -423.5 -41.5t-303.5 -128.5q-102 -69 -155.5 -147.5t-53.5 -159.5 q0 -79 55 -127.5t145 -48.5q149 0 261 95t112 220q0 40 -10.5 78.5t-32.5 79.5l10 4q25 -45 37 -89.5t12 -90.5q0 -159 -116 -275t-275 -116q-101 0 -166 61t-65 156q0 127 95 250t273 225q173 99 379 145.5t476 46.5q84 0 157 -4t139 -12q95 62 194 94.5t196 32.5 q104 0 160.5 -33.5t56.5 -95.5q0 -72 -95.5 -126t-236.5 -54q-23 0 -38 0.5t-29 1.5q-90 -35 -155.5 -128.5t-170.5 -368.5q53 3 94.5 15t77.5 35q29 49 51.5 72.5t49.5 36.5q10 1 22 1.5t34 0.5h52q7 0 38.5 -1t57.5 -1q-157 -92 -253 -202t-128 -234l-14 2q8 63 25 133 t42 145q-27 -10 -66.5 -16.5t-89.5 -8.5q-56 -142 -158.5 -255.5t-250.5 -198.5q127 -22 221 -32.5t168 -10.5q123 0 214 27.5t161 85.5q77 64 215 252q18 25 27 36l12 -6q-213 -310 -378 -443.5t-331 -133.5q-80 0 -180.5 30t-237.5 95q-63 -44 -130 -67t-130 -23 q-78 0 -119.5 22.5t-41.5 65.5q0 56 76.5 92.5t203.5 36.5q62 0 202 -18q13 -2 19 -3q39 54 74 139.5t98 296.5h-96h-133q-33 0 -70.5 0.5t-79.5 1.5q-341 -413 -499 -532t-307 -119q-102 0 -164 51t-62 134zM213 70q0 -35 37 -54.5t102 -19.5q64 0 124.5 22t113.5 64 q-81 35 -140.5 50t-109.5 15q-59 0 -93 -21t-34 -56zM502 633l13 -1q125 -3 181 -3q32 0 125 2q33 1 51 2q67 194 205.5 322.5t353.5 195.5q-23 3 -139 14t-211 21q-162 -113 -304 -249t-275 -304zM1286 1323q130 -17 237 -27t152 -10q81 0 122.5 16.5t41.5 49.5 q0 36 -53 60t-137 24q-94 0 -190.5 -30t-172.5 -83z" />
<glyph unicode="&#xc7;" horiz-adv-x="1479" d="M-176 369q0 181 109.5 375.5t304.5 355.5q178 147 385 230t393 83q124 0 195 -58.5t71 -160.5q0 -128 -114.5 -227t-264.5 -99q-101 0 -163 52t-62 135q0 49 20.5 93t59.5 77l10 -8q-37 -37 -55.5 -77t-18.5 -83q0 -66 42.5 -108t109.5 -42q57 0 111.5 31.5t99.5 89.5 q39 52 61.5 113.5t22.5 115.5q0 66 -36.5 101t-105.5 35q-106 0 -232.5 -57.5t-246.5 -161.5q-200 -174 -315 -401t-115 -445q0 -152 72 -243t190 -91q146 0 256.5 131.5t110.5 310.5q0 102 -42 158.5t-118 56.5q-96 0 -165.5 -105t-69.5 -255q0 -13 1 -28t1 -17h-14 q-3 20 -4 29.5t-1 15.5q0 180 100.5 304t239.5 124q115 0 186.5 -69t71.5 -179q0 -88 -49.5 -175t-142.5 -161q-106 -85 -231 -131.5t-244 -46.5q-193 0 -303.5 110t-110.5 302zM-148 -532q144 13 223.5 63.5t79.5 126.5q0 41 -28.5 64.5t-77.5 23.5q-8 0 -18 -1.5t-25 -4.5 l162 254h22l-76 -117h13h22q68 0 108 -38.5t40 -104.5q0 -116 -121 -193.5t-324 -89.5v17z" />
<glyph unicode="&#xc8;" horiz-adv-x="1442" d="M-311 285q0 107 68.5 190t232.5 168q7 4 21 10q93 46 110 119q6 25 19 112.5t30 145.5q16 57 42.5 108t61.5 93q71 84 195 137t248 53q137 0 219 -62.5t82 -166.5q0 -121 -110.5 -202t-274.5 -81q-39 0 -75 6.5t-73 20.5l5 14q25 -11 53.5 -16.5t60.5 -5.5q99 0 159 72 t60 190q0 94 -46 150.5t-124 56.5q-58 0 -110.5 -43.5t-81.5 -116.5q-21 -54 -37 -172.5t-41 -171.5q-30 -65 -163 -139q-56 -31 -85 -49q-82 -54 -131 -146.5t-49 -196.5q0 -157 100.5 -260.5t253.5 -103.5q148 0 251.5 105.5t103.5 252.5q0 99 -51.5 158t-135.5 59 q-79 0 -153.5 -59t-128.5 -166l-15 6q71 140 190 219.5t253 79.5q109 0 176 -61.5t67 -161.5q0 -94 -57.5 -177t-173.5 -157q-108 -68 -233 -102.5t-261 -34.5q-207 0 -329.5 89.5t-122.5 236.5zM618 1880h204q2 -36 2.5 -69t0.5 -68q0 -63 -3.5 -130.5t-10.5 -139.5l-21 -3 q-31 118 -74.5 221t-97.5 189z" />
<glyph unicode="&#xc9;" horiz-adv-x="1442" d="M-311 285q0 107 68.5 190t232.5 168q7 4 21 10q93 46 110 119q6 25 19 112.5t30 145.5q16 57 42.5 108t61.5 93q71 84 195 137t248 53q137 0 219 -62.5t82 -166.5q0 -121 -110.5 -202t-274.5 -81q-39 0 -75 6.5t-73 20.5l5 14q25 -11 53.5 -16.5t60.5 -5.5q99 0 159 72 t60 190q0 94 -46 150.5t-124 56.5q-58 0 -110.5 -43.5t-81.5 -116.5q-21 -54 -37 -172.5t-41 -171.5q-30 -65 -163 -139q-56 -31 -85 -49q-82 -54 -131 -146.5t-49 -196.5q0 -157 100.5 -260.5t253.5 -103.5q148 0 251.5 105.5t103.5 252.5q0 99 -51.5 158t-135.5 59 q-79 0 -153.5 -59t-128.5 -166l-15 6q71 140 190 219.5t253 79.5q109 0 176 -61.5t67 -161.5q0 -94 -57.5 -177t-173.5 -157q-108 -68 -233 -102.5t-261 -34.5q-207 0 -329.5 89.5t-122.5 236.5zM624 1475q52 96 107.5 190t115.5 186l273 4q-136 -103 -255.5 -199.5 t-221.5 -185.5z" />
<glyph unicode="&#xca;" horiz-adv-x="1442" d="M-311 285q0 107 68.5 190t232.5 168q7 4 21 10q93 46 110 119q6 25 19 112.5t30 145.5q16 57 42.5 108t61.5 93q71 84 195 137t248 53q137 0 219 -62.5t82 -166.5q0 -121 -110.5 -202t-274.5 -81q-39 0 -75 6.5t-73 20.5l5 14q25 -11 53.5 -16.5t60.5 -5.5q99 0 159 72 t60 190q0 94 -46 150.5t-124 56.5q-58 0 -110.5 -43.5t-81.5 -116.5q-21 -54 -37 -172.5t-41 -171.5q-30 -65 -163 -139q-56 -31 -85 -49q-82 -54 -131 -146.5t-49 -196.5q0 -157 100.5 -260.5t253.5 -103.5q148 0 251.5 105.5t103.5 252.5q0 99 -51.5 158t-135.5 59 q-79 0 -153.5 -59t-128.5 -166l-15 6q71 140 190 219.5t253 79.5q109 0 176 -61.5t67 -161.5q0 -94 -57.5 -177t-173.5 -157q-108 -68 -233 -102.5t-261 -34.5q-207 0 -329.5 89.5t-122.5 236.5zM411 1493l398 430l151 2q-24 -52 -35.5 -97t-11.5 -89q0 -73 25 -132t73 -98 l-4 -14q-114 27 -176 94t-63 164q-88 -64 -173.5 -132.5t-170.5 -141.5z" />
<glyph unicode="&#xcb;" horiz-adv-x="1442" d="M-311 285q0 107 68.5 190t232.5 168q7 4 21 10q93 46 110 119q6 25 19 112.5t30 145.5q16 57 42.5 108t61.5 93q71 84 195 137t248 53q137 0 219 -62.5t82 -166.5q0 -121 -110.5 -202t-274.5 -81q-39 0 -75 6.5t-73 20.5l5 14q25 -11 53.5 -16.5t60.5 -5.5q99 0 159 72 t60 190q0 94 -46 150.5t-124 56.5q-58 0 -110.5 -43.5t-81.5 -116.5q-21 -54 -37 -172.5t-41 -171.5q-30 -65 -163 -139q-56 -31 -85 -49q-82 -54 -131 -146.5t-49 -196.5q0 -157 100.5 -260.5t253.5 -103.5q148 0 251.5 105.5t103.5 252.5q0 99 -51.5 158t-135.5 59 q-79 0 -153.5 -59t-128.5 -166l-15 6q71 140 190 219.5t253 79.5q109 0 176 -61.5t67 -161.5q0 -94 -57.5 -177t-173.5 -157q-108 -68 -233 -102.5t-261 -34.5q-207 0 -329.5 89.5t-122.5 236.5zM475 1663q0 41 32.5 73.5t73.5 32.5q44 0 76.5 -32t32.5 -74q0 -47 -31 -79 t-78 -32q-44 0 -75 32.5t-31 78.5zM872 1663q0 41 32.5 73.5t74.5 32.5q43 0 75.5 -32t32.5 -74q0 -47 -31 -79t-77 -32q-45 0 -76 32.5t-31 78.5z" />
<glyph unicode="&#xcc;" horiz-adv-x="1479" d="M-451 246q0 65 39.5 108t98.5 43q54 0 86 -31.5t32 -84.5q0 -39 -21 -68t-54 -37q-1 -5 -1.5 -11.5t-0.5 -14.5q0 -71 69 -118.5t176 -47.5q96 0 185.5 41.5t173.5 126.5q110 110 269 399q80 146 126 219q150 236 326.5 368.5t441.5 209.5h-33q-603 0 -954.5 -154 t-351.5 -412q0 -83 51.5 -137.5t132.5 -54.5q100 0 176 74.5t76 173.5q0 39 -12.5 75t-36.5 68l10 8q27 -32 41 -70t14 -81q0 -127 -112 -222.5t-267 -95.5q-125 0 -205.5 71t-80.5 179q0 262 353 420t986 174h143q69 0 95 2t43 6q16 4 48 13q99 26 140 26q28 0 43.5 -9.5 t15.5 -25.5q0 -20 -21 -32.5t-56 -12.5q-20 0 -62 4t-121 13q-128 -25 -240.5 -128t-228.5 -302q-30 -53 -87 -154q-262 -463 -451 -606q-115 -87 -267.5 -140t-283.5 -53q-203 0 -323 77t-120 204zM1003 1880h204q2 -36 2.5 -69t0.5 -68q0 -63 -3.5 -130.5t-10.5 -139.5 l-21 -3q-31 118 -74.5 221t-97.5 189z" />
<glyph unicode="&#xcd;" horiz-adv-x="1479" d="M-451 246q0 65 39.5 108t98.5 43q54 0 86 -31.5t32 -84.5q0 -39 -21 -68t-54 -37q-1 -5 -1.5 -11.5t-0.5 -14.5q0 -71 69 -118.5t176 -47.5q96 0 185.5 41.5t173.5 126.5q110 110 269 399q80 146 126 219q150 236 326.5 368.5t441.5 209.5h-33q-603 0 -954.5 -154 t-351.5 -412q0 -83 51.5 -137.5t132.5 -54.5q100 0 176 74.5t76 173.5q0 39 -12.5 75t-36.5 68l10 8q27 -32 41 -70t14 -81q0 -127 -112 -222.5t-267 -95.5q-125 0 -205.5 71t-80.5 179q0 262 353 420t986 174h143q69 0 95 2t43 6q16 4 48 13q99 26 140 26q28 0 43.5 -9.5 t15.5 -25.5q0 -20 -21 -32.5t-56 -12.5q-20 0 -62 4t-121 13q-128 -25 -240.5 -128t-228.5 -302q-30 -53 -87 -154q-262 -463 -451 -606q-115 -87 -267.5 -140t-283.5 -53q-203 0 -323 77t-120 204zM1009 1475q52 96 107.5 190t115.5 186l273 4q-136 -103 -255.5 -199.5 t-221.5 -185.5z" />
<glyph unicode="&#xce;" horiz-adv-x="1479" d="M-451 246q0 65 39.5 108t98.5 43q54 0 86 -31.5t32 -84.5q0 -39 -21 -68t-54 -37q-1 -5 -1.5 -11.5t-0.5 -14.5q0 -71 69 -118.5t176 -47.5q96 0 185.5 41.5t173.5 126.5q110 110 269 399q80 146 126 219q150 236 326.5 368.5t441.5 209.5h-33q-603 0 -954.5 -154 t-351.5 -412q0 -83 51.5 -137.5t132.5 -54.5q100 0 176 74.5t76 173.5q0 39 -12.5 75t-36.5 68l10 8q27 -32 41 -70t14 -81q0 -127 -112 -222.5t-267 -95.5q-125 0 -205.5 71t-80.5 179q0 262 353 420t986 174h143q69 0 95 2t43 6q16 4 48 13q99 26 140 26q28 0 43.5 -9.5 t15.5 -25.5q0 -20 -21 -32.5t-56 -12.5q-20 0 -62 4t-121 13q-128 -25 -240.5 -128t-228.5 -302q-30 -53 -87 -154q-262 -463 -451 -606q-115 -87 -267.5 -140t-283.5 -53q-203 0 -323 77t-120 204zM796 1493l398 430l151 2q-24 -52 -35.5 -97t-11.5 -89q0 -73 25 -132 t73 -98l-4 -14q-114 27 -176 94t-63 164q-88 -64 -173.5 -132.5t-170.5 -141.5z" />
<glyph unicode="&#xcf;" horiz-adv-x="1479" d="M-451 246q0 65 39.5 108t98.5 43q54 0 86 -31.5t32 -84.5q0 -39 -21 -68t-54 -37q-1 -5 -1.5 -11.5t-0.5 -14.5q0 -71 69 -118.5t176 -47.5q96 0 185.5 41.5t173.5 126.5q110 110 269 399q80 146 126 219q150 236 326.5 368.5t441.5 209.5h-33q-603 0 -954.5 -154 t-351.5 -412q0 -83 51.5 -137.5t132.5 -54.5q100 0 176 74.5t76 173.5q0 39 -12.5 75t-36.5 68l10 8q27 -32 41 -70t14 -81q0 -127 -112 -222.5t-267 -95.5q-125 0 -205.5 71t-80.5 179q0 262 353 420t986 174h143q69 0 95 2t43 6q16 4 48 13q99 26 140 26q28 0 43.5 -9.5 t15.5 -25.5q0 -20 -21 -32.5t-56 -12.5q-20 0 -62 4t-121 13q-128 -25 -240.5 -128t-228.5 -302q-30 -53 -87 -154q-262 -463 -451 -606q-115 -87 -267.5 -140t-283.5 -53q-203 0 -323 77t-120 204zM860 1663q0 41 32.5 73.5t73.5 32.5q44 0 76.5 -32t32.5 -74 q0 -47 -31 -79t-78 -32q-44 0 -75 32.5t-31 78.5zM1257 1663q0 41 32.5 73.5t74.5 32.5q43 0 75.5 -32t32.5 -74q0 -47 -31 -79t-77 -32q-45 0 -76 32.5t-31 78.5z" />
<glyph unicode="&#xd0;" horiz-adv-x="2048" d="M-178 51q0 19 20.5 30t57.5 11q50 0 144 -14.5t235 -44.5q133 28 263.5 186t272.5 463h-133q-55 -142 -163.5 -227.5t-231.5 -85.5q-141 0 -236.5 95.5t-95.5 235.5q0 139 70 273t194 233q128 104 301 160.5t361 56.5q134 0 247.5 -28.5t208.5 -85.5q104 66 224.5 103.5 t250.5 43.5l3 -14q-131 -12 -229 -56.5t-173 -125.5q124 -107 192 -244t68 -281q0 -181 -100.5 -345.5t-274.5 -264.5q-122 -71 -298.5 -107t-397.5 -36q-81 0 -241 14q-77 7 -116 10q-72 -14 -127.5 -20t-101.5 -6q-94 0 -144 18.5t-50 52.5zM174 686q0 -118 54 -186 t147 -68q88 0 165 65.5t128 184.5h-322v25h326q15 57 20.5 89.5t5.5 59.5q0 57 -16 123t-49 143l12 4q33 -77 49.5 -144.5t16.5 -127.5q0 -31 -5 -65.5t-16 -81.5h137q111 215 230 360t252 227q-77 54 -177 82.5t-210 28.5q-148 0 -291 -63t-250 -175q-98 -102 -152.5 -229 t-54.5 -252zM311 27q67 -15 136 -22t143 -7q174 0 316 57.5t257 173.5q135 136 212 329t77 392q0 82 -18 147t-56 117q-55 -66 -194 -338q-55 -109 -86 -169h137v-25h-150q-124 -258 -316 -420.5t-458 -234.5z" />
<glyph unicode="&#xd1;" horiz-adv-x="1858" d="M-571 207q0 66 39 113t92 47q49 0 81.5 -33.5t32.5 -83.5q0 -48 -26.5 -78.5t-69.5 -30.5h-6q9 -52 56.5 -83t119.5 -31q218 0 422 236t453 784q0 6 -1 19.5t-1 20.5q0 158 66 245t185 87h39l-57 -129q-5 -40 -6.5 -60.5t-1.5 -39.5q0 -110 76 -349q25 -78 36 -118 q32 -111 45 -192t13 -156v-15q217 504 437.5 773.5t414.5 269.5q80 0 130 -50.5t50 -131.5q0 -97 -74 -168t-202 -95v15q60 12 93 50.5t33 96.5q0 67 -42 105.5t-115 38.5q-188 0 -413 -338.5t-462 -976.5h-28q5 30 7.5 61t2.5 66q0 84 -16 180.5t-46 185.5q-8 25 -24 72 q-117 346 -135 500q-246 -542 -466 -785t-460 -243q-119 0 -195.5 62.5t-76.5 158.5zM1010 1534q22 125 61.5 178t108.5 53q41 0 140.5 -40t156.5 -40q51 0 78.5 20.5t64.5 88.5l24 -8q-49 -147 -90 -193.5t-108 -46.5q-52 0 -155 45t-150 45q-43 0 -70.5 -27t-38.5 -79z " />
<glyph unicode="&#xd2;" horiz-adv-x="1669" d="M-199 373q0 197 115.5 397t319.5 356q108 84 224 134t236 65q52 49 107 73.5t112 24.5q110 0 181 -95.5t71 -246.5q0 -143 -67 -319t-187 -340q22 -7 46 -9.5t57 -2.5q90 0 171.5 33.5t168.5 105.5l6 -14q-87 -75 -171 -109.5t-177 -34.5q-29 0 -58.5 3.5t-60.5 10.5 q-163 -205 -357 -320.5t-372 -115.5q-168 0 -266.5 108.5t-98.5 295.5zM72 367q0 -154 71 -247t187 -93q112 0 244.5 118.5t222.5 307.5q-136 65 -207.5 177t-71.5 259q0 104 42 210.5t124 211.5q-99 -28 -192.5 -98t-180.5 -181q-107 -137 -173 -321.5t-66 -343.5zM614 928 q0 -170 45.5 -278.5t145.5 -178.5q79 180 117.5 332.5t38.5 290.5t-37 208t-109 70q-22 0 -44 -11t-48 -36q73 0 115.5 -45t42.5 -123q0 -41 -11.5 -80.5t-35.5 -83.5l-13 4q23 44 34 82t11 70q0 77 -37.5 119.5t-105.5 42.5h-12q-48 -71 -72.5 -167.5t-24.5 -215.5z M862 1880h204q2 -36 2.5 -69t0.5 -68q0 -63 -3.5 -130.5t-10.5 -139.5l-21 -3q-31 118 -74.5 221t-97.5 189z" />
<glyph unicode="&#xd3;" horiz-adv-x="1669" d="M-199 373q0 197 115.5 397t319.5 356q108 84 224 134t236 65q52 49 107 73.5t112 24.5q110 0 181 -95.5t71 -246.5q0 -143 -67 -319t-187 -340q22 -7 46 -9.5t57 -2.5q90 0 171.5 33.5t168.5 105.5l6 -14q-87 -75 -171 -109.5t-177 -34.5q-29 0 -58.5 3.5t-60.5 10.5 q-163 -205 -357 -320.5t-372 -115.5q-168 0 -266.5 108.5t-98.5 295.5zM72 367q0 -154 71 -247t187 -93q112 0 244.5 118.5t222.5 307.5q-136 65 -207.5 177t-71.5 259q0 104 42 210.5t124 211.5q-99 -28 -192.5 -98t-180.5 -181q-107 -137 -173 -321.5t-66 -343.5zM614 928 q0 -170 45.5 -278.5t145.5 -178.5q79 180 117.5 332.5t38.5 290.5t-37 208t-109 70q-22 0 -44 -11t-48 -36q73 0 115.5 -45t42.5 -123q0 -41 -11.5 -80.5t-35.5 -83.5l-13 4q23 44 34 82t11 70q0 77 -37.5 119.5t-105.5 42.5h-12q-48 -71 -72.5 -167.5t-24.5 -215.5z M868 1475q52 96 107.5 190t115.5 186l273 4q-136 -103 -255.5 -199.5t-221.5 -185.5z" />
<glyph unicode="&#xd4;" horiz-adv-x="1669" d="M-199 373q0 197 115.5 397t319.5 356q108 84 224 134t236 65q52 49 107 73.5t112 24.5q110 0 181 -95.5t71 -246.5q0 -143 -67 -319t-187 -340q22 -7 46 -9.5t57 -2.5q90 0 171.5 33.5t168.5 105.5l6 -14q-87 -75 -171 -109.5t-177 -34.5q-29 0 -58.5 3.5t-60.5 10.5 q-163 -205 -357 -320.5t-372 -115.5q-168 0 -266.5 108.5t-98.5 295.5zM72 367q0 -154 71 -247t187 -93q112 0 244.5 118.5t222.5 307.5q-136 65 -207.5 177t-71.5 259q0 104 42 210.5t124 211.5q-99 -28 -192.5 -98t-180.5 -181q-107 -137 -173 -321.5t-66 -343.5zM614 928 q0 -170 45.5 -278.5t145.5 -178.5q79 180 117.5 332.5t38.5 290.5t-37 208t-109 70q-22 0 -44 -11t-48 -36q73 0 115.5 -45t42.5 -123q0 -41 -11.5 -80.5t-35.5 -83.5l-13 4q23 44 34 82t11 70q0 77 -37.5 119.5t-105.5 42.5h-12q-48 -71 -72.5 -167.5t-24.5 -215.5z M655 1493l398 430l151 2q-24 -52 -35.5 -97t-11.5 -89q0 -73 25 -132t73 -98l-4 -14q-114 27 -176 94t-63 164q-88 -64 -173.5 -132.5t-170.5 -141.5z" />
<glyph unicode="&#xd5;" horiz-adv-x="1669" d="M-199 373q0 197 115.5 397t319.5 356q108 84 224 134t236 65q52 49 107 73.5t112 24.5q110 0 181 -95.5t71 -246.5q0 -143 -67 -319t-187 -340q22 -7 46 -9.5t57 -2.5q90 0 171.5 33.5t168.5 105.5l6 -14q-87 -75 -171 -109.5t-177 -34.5q-29 0 -58.5 3.5t-60.5 10.5 q-163 -205 -357 -320.5t-372 -115.5q-168 0 -266.5 108.5t-98.5 295.5zM72 367q0 -154 71 -247t187 -93q112 0 244.5 118.5t222.5 307.5q-136 65 -207.5 177t-71.5 259q0 104 42 210.5t124 211.5q-99 -28 -192.5 -98t-180.5 -181q-107 -137 -173 -321.5t-66 -343.5zM614 928 q0 -170 45.5 -278.5t145.5 -178.5q79 180 117.5 332.5t38.5 290.5t-37 208t-109 70q-22 0 -44 -11t-48 -36q73 0 115.5 -45t42.5 -123q0 -41 -11.5 -80.5t-35.5 -83.5l-13 4q23 44 34 82t11 70q0 77 -37.5 119.5t-105.5 42.5h-12q-48 -71 -72.5 -167.5t-24.5 -215.5z M668 1534q22 125 61.5 178t108.5 53q41 0 140.5 -40t156.5 -40q51 0 78.5 20.5t64.5 88.5l24 -8q-49 -147 -90 -193.5t-108 -46.5q-52 0 -155 45t-150 45q-43 0 -70.5 -27t-38.5 -79z" />
<glyph unicode="&#xd6;" horiz-adv-x="1669" d="M-199 373q0 197 115.5 397t319.5 356q108 84 224 134t236 65q52 49 107 73.5t112 24.5q110 0 181 -95.5t71 -246.5q0 -143 -67 -319t-187 -340q22 -7 46 -9.5t57 -2.5q90 0 171.5 33.5t168.5 105.5l6 -14q-87 -75 -171 -109.5t-177 -34.5q-29 0 -58.5 3.5t-60.5 10.5 q-163 -205 -357 -320.5t-372 -115.5q-168 0 -266.5 108.5t-98.5 295.5zM72 367q0 -154 71 -247t187 -93q112 0 244.5 118.5t222.5 307.5q-136 65 -207.5 177t-71.5 259q0 104 42 210.5t124 211.5q-99 -28 -192.5 -98t-180.5 -181q-107 -137 -173 -321.5t-66 -343.5zM614 928 q0 -170 45.5 -278.5t145.5 -178.5q79 180 117.5 332.5t38.5 290.5t-37 208t-109 70q-22 0 -44 -11t-48 -36q73 0 115.5 -45t42.5 -123q0 -41 -11.5 -80.5t-35.5 -83.5l-13 4q23 44 34 82t11 70q0 77 -37.5 119.5t-105.5 42.5h-12q-48 -71 -72.5 -167.5t-24.5 -215.5z M719 1663q0 41 32.5 73.5t73.5 32.5q44 0 76.5 -32t32.5 -74q0 -47 -31 -79t-78 -32q-44 0 -75 32.5t-31 78.5zM1116 1663q0 41 32.5 73.5t74.5 32.5q43 0 75.5 -32t32.5 -74q0 -47 -31 -79t-77 -32q-45 0 -76 32.5t-31 78.5z" />
<glyph unicode="&#xd7;" horiz-adv-x="1706" d="M287 152l458 458l-458 461l116 117l459 -459l461 459l117 -117l-459 -461l459 -458l-117 -119l-461 461l-459 -461z" />
<glyph unicode="&#xd8;" horiz-adv-x="1554" d="M-199 360q0 192 98.5 379t274.5 328q129 103 264.5 164t227.5 61q51 0 87 -11.5t60 -35.5l45 74q-38 46 -97.5 70t-133.5 24q-101 0 -211.5 -64.5t-200.5 -177.5l-10 9q96 129 235 202.5t285 73.5q50 0 96.5 -9.5t93.5 -29.5l101 162l18 -8l-100 -164q102 -61 150.5 -153 t48.5 -226q0 -215 -112.5 -431.5t-315.5 -391.5q-137 -119 -275 -179.5t-270 -60.5q-25 0 -49.5 3t-47.5 9l-102 -167l-16 8l100 166q-113 40 -178.5 141t-65.5 235zM68 360q0 -72 15 -131t46 -110l674 1110q-18 21 -46 32t-63 11q-89 0 -197.5 -71t-195.5 -189 q-111 -153 -172 -324.5t-61 -327.5zM143 100q36 -38 75.5 -55.5t90.5 -17.5q103 0 202 63.5t183 183.5q117 167 182.5 363t65.5 379q0 92 -17.5 162.5t-54.5 121.5l-41 -67q18 -24 26.5 -47.5t8.5 -48.5q0 -42 -12.5 -84.5t-38.5 -85.5l-12 8q23 40 35 78.5t12 72.5 q0 24 -8 46.5t-23 44.5z" />
<glyph unicode="&#xd9;" horiz-adv-x="1933" d="M-150 891q0 92 61 194.5t165 184.5q88 70 192.5 108.5t206.5 38.5q127 0 198.5 -59t71.5 -164q0 -131 -292 -583l-27 -42q-144 -224 -182.5 -308t-38.5 -140q0 -38 21 -61t57 -23q55 0 151 61t203 166q168 166 531 776q119 201 186 310h278q-402 -612 -558 -887.5 t-156 -364.5q0 -42 21.5 -66t59.5 -24q100 0 275 143.5t338 372.5l10 -10q-181 -257 -374.5 -404t-348.5 -147q-97 0 -151 50t-54 141q0 39 15 87.5t45 106.5l-9 6q-159 -181 -315 -279t-285 -98q-79 0 -125.5 46.5t-46.5 126.5q0 142 233 489q50 74 77 115 q138 211 192.5 320.5t54.5 172.5q0 64 -39.5 100.5t-109.5 36.5q-67 0 -139 -35.5t-138 -101.5q-68 -70 -105.5 -157.5t-37.5 -176.5q0 -75 33 -120t86 -45q60 0 119 51.5t100 140.5l10 -4q-44 -104 -124 -166.5t-167 -62.5q-76 0 -122 49.5t-46 134.5zM993 1880h204 q2 -36 2.5 -69t0.5 -68q0 -63 -3.5 -130.5t-10.5 -139.5l-21 -3q-31 118 -74.5 221t-97.5 189z" />
<glyph unicode="&#xda;" horiz-adv-x="1933" d="M-150 891q0 92 61 194.5t165 184.5q88 70 192.5 108.5t206.5 38.5q127 0 198.5 -59t71.5 -164q0 -131 -292 -583l-27 -42q-144 -224 -182.5 -308t-38.5 -140q0 -38 21 -61t57 -23q55 0 151 61t203 166q168 166 531 776q119 201 186 310h278q-402 -612 -558 -887.5 t-156 -364.5q0 -42 21.5 -66t59.5 -24q100 0 275 143.5t338 372.5l10 -10q-181 -257 -374.5 -404t-348.5 -147q-97 0 -151 50t-54 141q0 39 15 87.5t45 106.5l-9 6q-159 -181 -315 -279t-285 -98q-79 0 -125.5 46.5t-46.5 126.5q0 142 233 489q50 74 77 115 q138 211 192.5 320.5t54.5 172.5q0 64 -39.5 100.5t-109.5 36.5q-67 0 -139 -35.5t-138 -101.5q-68 -70 -105.5 -157.5t-37.5 -176.5q0 -75 33 -120t86 -45q60 0 119 51.5t100 140.5l10 -4q-44 -104 -124 -166.5t-167 -62.5q-76 0 -122 49.5t-46 134.5zM999 1475 q52 96 107.5 190t115.5 186l273 4q-136 -103 -255.5 -199.5t-221.5 -185.5z" />
<glyph unicode="&#xdb;" horiz-adv-x="1933" d="M-150 891q0 92 61 194.5t165 184.5q88 70 192.5 108.5t206.5 38.5q127 0 198.5 -59t71.5 -164q0 -131 -292 -583l-27 -42q-144 -224 -182.5 -308t-38.5 -140q0 -38 21 -61t57 -23q55 0 151 61t203 166q168 166 531 776q119 201 186 310h278q-402 -612 -558 -887.5 t-156 -364.5q0 -42 21.5 -66t59.5 -24q100 0 275 143.5t338 372.5l10 -10q-181 -257 -374.5 -404t-348.5 -147q-97 0 -151 50t-54 141q0 39 15 87.5t45 106.5l-9 6q-159 -181 -315 -279t-285 -98q-79 0 -125.5 46.5t-46.5 126.5q0 142 233 489q50 74 77 115 q138 211 192.5 320.5t54.5 172.5q0 64 -39.5 100.5t-109.5 36.5q-67 0 -139 -35.5t-138 -101.5q-68 -70 -105.5 -157.5t-37.5 -176.5q0 -75 33 -120t86 -45q60 0 119 51.5t100 140.5l10 -4q-44 -104 -124 -166.5t-167 -62.5q-76 0 -122 49.5t-46 134.5zM786 1493l398 430 l151 2q-24 -52 -35.5 -97t-11.5 -89q0 -73 25 -132t73 -98l-4 -14q-114 27 -176 94t-63 164q-88 -64 -173.5 -132.5t-170.5 -141.5z" />
<glyph unicode="&#xdc;" horiz-adv-x="1933" d="M-150 891q0 92 61 194.5t165 184.5q88 70 192.5 108.5t206.5 38.5q127 0 198.5 -59t71.5 -164q0 -131 -292 -583l-27 -42q-144 -224 -182.5 -308t-38.5 -140q0 -38 21 -61t57 -23q55 0 151 61t203 166q168 166 531 776q119 201 186 310h278q-402 -612 -558 -887.5 t-156 -364.5q0 -42 21.5 -66t59.5 -24q100 0 275 143.5t338 372.5l10 -10q-181 -257 -374.5 -404t-348.5 -147q-97 0 -151 50t-54 141q0 39 15 87.5t45 106.5l-9 6q-159 -181 -315 -279t-285 -98q-79 0 -125.5 46.5t-46.5 126.5q0 142 233 489q50 74 77 115 q138 211 192.5 320.5t54.5 172.5q0 64 -39.5 100.5t-109.5 36.5q-67 0 -139 -35.5t-138 -101.5q-68 -70 -105.5 -157.5t-37.5 -176.5q0 -75 33 -120t86 -45q60 0 119 51.5t100 140.5l10 -4q-44 -104 -124 -166.5t-167 -62.5q-76 0 -122 49.5t-46 134.5zM850 1663 q0 41 32.5 73.5t73.5 32.5q44 0 76.5 -32t32.5 -74q0 -47 -31 -79t-78 -32q-44 0 -75 32.5t-31 78.5zM1247 1663q0 41 32.5 73.5t74.5 32.5q43 0 75.5 -32t32.5 -74q0 -47 -31 -79t-77 -32q-45 0 -76 32.5t-31 78.5z" />
<glyph unicode="&#xdd;" horiz-adv-x="1741" d="M-608 -319q0 112 87.5 178.5t235.5 66.5q46 0 92.5 -9.5t100.5 -29.5l-4 -12q-35 9 -57 12.5t-37 3.5q-80 0 -133.5 -67.5t-53.5 -169.5q0 -108 64 -175t168 -67q97 0 203.5 65.5t203.5 186.5q111 137 431 626l50 77l-8 6q-147 -184 -312 -290t-298 -106q-80 0 -126 47 t-46 130q0 122 226 473l24 37q20 31 59 90q248 379 248 508q0 51 -41 87.5t-98 36.5q-70 0 -142 -34t-133 -97q-69 -70 -110 -164.5t-41 -181.5q0 -74 32 -117.5t86 -43.5q56 0 112 49t99 137h15q-42 -100 -124 -166t-161 -66q-78 0 -124 51t-46 136q0 93 50 184.5 t143 169.5q101 86 209 130t219 44q122 0 196 -62t74 -165q0 -131 -273 -549q-39 -59 -59 -90q-119 -186 -165 -280t-46 -148q0 -36 24 -59t62 -23q56 0 153.5 62.5t201.5 166.5q105 106 274 362t436 718h285q-237 -347 -543.5 -851.5t-408.5 -635.5q-182 -234 -397.5 -351.5 t-461.5 -117.5q-191 0 -303 77.5t-112 209.5zM1140 1475q52 96 107.5 190t115.5 186l273 4q-136 -103 -255.5 -199.5t-221.5 -185.5z" />
<glyph unicode="&#xde;" horiz-adv-x="1933" d="M-272 219q0 73 37 115.5t100 42.5q50 0 82.5 -33t32.5 -84q0 -42 -20 -74.5t-56 -50.5q29 -55 79 -85t113 -30q91 0 194 95t222 286q31 51 94 161q214 371 383 566q-8 1 -22 1q-83 4 -117 4q-143 0 -272 -33.5t-252 -102.5t-194 -162.5t-71 -185.5q0 -80 57 -132t144 -52 q130 0 226 115.5t112 298.5l16 -2q-14 -209 -141.5 -337t-316.5 -128q-133 0 -215 69.5t-82 182.5q0 101 76 195.5t215 164.5q125 64 292.5 97.5t358.5 33.5q42 0 91.5 -2.5t112.5 -7.5q128 136 300 218.5t358 96.5l2 -12q-134 -20 -240 -97t-225 -247q171 -29 270 -127 t99 -236q0 -85 -42 -167t-118 -144q-65 -53 -144.5 -80.5t-164.5 -27.5q-110 0 -180.5 42t-87.5 117q-128 -227 -332 -355t-436 -128q-161 0 -249.5 58t-88.5 163zM852 514q14 -67 57 -103t109 -36q61 0 121.5 36t109.5 101q49 66 77 150.5t28 166.5q0 99 -44 165.5 t-122 86.5q-92 -130 -175 -270.5t-161 -296.5z" />
<glyph unicode="&#xdf;" horiz-adv-x="1309" d="M-1661 -356q0 116 92 187t246 71q34 0 72.5 -3.5t87.5 -11.5l-3 -12q-13 1 -27 1.5t-30 0.5q-91 0 -151 -65.5t-60 -165.5q0 -109 62.5 -176.5t163.5 -67.5q149 0 301 154t323 479l328 622q183 347 417 529t494 182q139 0 226.5 -68t87.5 -174q0 -62 -28 -115.5 t-79 -90.5q-58 -43 -174 -83q-44 -16 -63 -24q-92 -40 -136.5 -91.5t-44.5 -119.5q0 -67 57.5 -190.5t57.5 -186.5q0 -65 -36.5 -117.5t-100.5 -78.5l2 -11q149 50 296.5 182.5t264.5 325.5l14 -6q-161 -268 -366.5 -411.5t-427.5 -143.5q-135 0 -215 59t-80 158 q0 63 44.5 112.5t100.5 49.5q47 0 78 -29t31 -71q0 -37 -25.5 -62.5t-60.5 -25.5q-10 0 -19.5 2t-19.5 6q-5 -15 -7.5 -28.5t-2.5 -24.5q0 -54 38.5 -89.5t96.5 -35.5q71 0 119.5 53t48.5 131q0 56 -63 176q-17 32 -25 49q-17 35 -25 66.5t-8 60.5q0 56 24.5 100.5 t75.5 79.5q52 36 137 62t99 33q88 39 142 140t54 220q0 89 -36 140t-99 51q-113 0 -285.5 -185t-318.5 -475l-229 -455q-229 -455 -478 -654.5t-581 -199.5q-175 0 -276 71.5t-101 193.5z" />
<glyph unicode="&#xe0;" horiz-adv-x="1128" d="M-481 195q0 105 57.5 210.5t161.5 186.5q83 66 178.5 102.5t181.5 36.5q76 0 119 -33.5t53 -101.5l56 104l276 17q-182 -288 -264 -439t-82 -198q0 -21 13 -36t30 -15q74 0 194.5 118t313.5 381l10 -8q-203 -289 -341.5 -414.5t-250.5 -125.5q-79 0 -127.5 49t-48.5 129 q0 9 0.5 18.5t1.5 20.5q-69 -100 -162 -158.5t-176 -58.5q-86 0 -140 59.5t-54 155.5zM-229 174q0 -49 23 -77.5t63 -28.5q44 0 89.5 34.5t98.5 108.5q80 111 125 216t45 175q0 53 -19 82t-55 29q-48 0 -97.5 -36.5t-111.5 -117.5q-72 -96 -116.5 -204t-44.5 -181zM186 1239 h204q2 -36 2.5 -69t0.5 -68q0 -63 -3.5 -130.5t-10.5 -139.5l-21 -3q-31 118 -74.5 221t-97.5 189z" />
<glyph unicode="&#xe1;" horiz-adv-x="1128" d="M-481 195q0 105 57.5 210.5t161.5 186.5q83 66 178.5 102.5t181.5 36.5q76 0 119 -33.5t53 -101.5l56 104l276 17q-182 -288 -264 -439t-82 -198q0 -21 13 -36t30 -15q74 0 194.5 118t313.5 381l10 -8q-203 -289 -341.5 -414.5t-250.5 -125.5q-79 0 -127.5 49t-48.5 129 q0 9 0.5 18.5t1.5 20.5q-69 -100 -162 -158.5t-176 -58.5q-86 0 -140 59.5t-54 155.5zM-229 174q0 -49 23 -77.5t63 -28.5q44 0 89.5 34.5t98.5 108.5q80 111 125 216t45 175q0 53 -19 82t-55 29q-48 0 -97.5 -36.5t-111.5 -117.5q-72 -96 -116.5 -204t-44.5 -181zM192 834 q52 96 107.5 190t115.5 186l273 4q-136 -103 -255.5 -199.5t-221.5 -185.5z" />
<glyph unicode="&#xe2;" horiz-adv-x="1128" d="M-481 195q0 105 57.5 210.5t161.5 186.5q83 66 178.5 102.5t181.5 36.5q76 0 119 -33.5t53 -101.5l56 104l276 17q-182 -288 -264 -439t-82 -198q0 -21 13 -36t30 -15q74 0 194.5 118t313.5 381l10 -8q-203 -289 -341.5 -414.5t-250.5 -125.5q-79 0 -127.5 49t-48.5 129 q0 9 0.5 18.5t1.5 20.5q-69 -100 -162 -158.5t-176 -58.5q-86 0 -140 59.5t-54 155.5zM-229 174q0 -49 23 -77.5t63 -28.5q44 0 89.5 34.5t98.5 108.5q80 111 125 216t45 175q0 53 -19 82t-55 29q-48 0 -97.5 -36.5t-111.5 -117.5q-72 -96 -116.5 -204t-44.5 -181zM-21 852 l398 430l151 2q-24 -52 -35.5 -97t-11.5 -89q0 -73 25 -132t73 -98l-4 -14q-114 27 -176 94t-63 164q-88 -64 -173.5 -132.5t-170.5 -141.5z" />
<glyph unicode="&#xe3;" horiz-adv-x="1128" d="M-481 195q0 105 57.5 210.5t161.5 186.5q83 66 178.5 102.5t181.5 36.5q76 0 119 -33.5t53 -101.5l56 104l276 17q-182 -288 -264 -439t-82 -198q0 -21 13 -36t30 -15q74 0 194.5 118t313.5 381l10 -8q-203 -289 -341.5 -414.5t-250.5 -125.5q-79 0 -127.5 49t-48.5 129 q0 9 0.5 18.5t1.5 20.5q-69 -100 -162 -158.5t-176 -58.5q-86 0 -140 59.5t-54 155.5zM-229 174q0 -49 23 -77.5t63 -28.5q44 0 89.5 34.5t98.5 108.5q80 111 125 216t45 175q0 53 -19 82t-55 29q-48 0 -97.5 -36.5t-111.5 -117.5q-72 -96 -116.5 -204t-44.5 -181zM-8 893 q22 125 61.5 178t108.5 53q41 0 140.5 -40t156.5 -40q51 0 78.5 20.5t64.5 88.5l24 -8q-49 -147 -90 -193.5t-108 -46.5q-52 0 -155 45t-150 45q-43 0 -70.5 -27t-38.5 -79z" />
<glyph unicode="&#xe4;" horiz-adv-x="1128" d="M-481 195q0 105 57.5 210.5t161.5 186.5q83 66 178.5 102.5t181.5 36.5q76 0 119 -33.5t53 -101.5l56 104l276 17q-182 -288 -264 -439t-82 -198q0 -21 13 -36t30 -15q74 0 194.5 118t313.5 381l10 -8q-203 -289 -341.5 -414.5t-250.5 -125.5q-79 0 -127.5 49t-48.5 129 q0 9 0.5 18.5t1.5 20.5q-69 -100 -162 -158.5t-176 -58.5q-86 0 -140 59.5t-54 155.5zM-229 174q0 -49 23 -77.5t63 -28.5q44 0 89.5 34.5t98.5 108.5q80 111 125 216t45 175q0 53 -19 82t-55 29q-48 0 -97.5 -36.5t-111.5 -117.5q-72 -96 -116.5 -204t-44.5 -181zM43 1022 q0 41 32.5 73.5t73.5 32.5q44 0 76.5 -32t32.5 -74q0 -47 -31 -79t-78 -32q-44 0 -75 32.5t-31 78.5zM440 1022q0 41 32.5 73.5t74.5 32.5q43 0 75.5 -32t32.5 -74q0 -47 -31 -79t-77 -32q-45 0 -76 32.5t-31 78.5z" />
<glyph unicode="&#xe5;" horiz-adv-x="1128" d="M-481 195q0 105 57.5 210.5t161.5 186.5q83 66 178.5 102.5t181.5 36.5q76 0 119 -33.5t53 -101.5l56 104l276 17q-182 -288 -264 -439t-82 -198q0 -21 13 -36t30 -15q74 0 194.5 118t313.5 381l10 -8q-203 -289 -341.5 -414.5t-250.5 -125.5q-79 0 -127.5 49t-48.5 129 q0 9 0.5 18.5t1.5 20.5q-69 -100 -162 -158.5t-176 -58.5q-86 0 -140 59.5t-54 155.5zM-229 174q0 -49 23 -77.5t63 -28.5q44 0 89.5 34.5t98.5 108.5q80 111 125 216t45 175q0 53 -19 82t-55 29q-48 0 -97.5 -36.5t-111.5 -117.5q-72 -96 -116.5 -204t-44.5 -181zM94 999 q0 91 79.5 157.5t186.5 66.5q78 0 121 -39t43 -109q0 -87 -78.5 -156t-179.5 -69q-76 0 -124 41.5t-48 107.5zM180 938q0 -32 17 -52t45 -20t60.5 22t62.5 62q34 46 54.5 96.5t20.5 88.5q0 30 -17.5 50.5t-43.5 20.5q-30 0 -63 -21t-60 -59q-35 -47 -55.5 -98.5t-20.5 -89.5 z" />
<glyph unicode="&#xe6;" horiz-adv-x="1450" d="M-481 195q0 105 57.5 210.5t161.5 186.5q83 66 178.5 102.5t181.5 36.5q76 0 119 -33.5t53 -101.5l41 102l291 19q33 10 64 15t61 5q83 0 130.5 -34.5t47.5 -94.5q0 -96 -122 -164.5t-420 -136.5q-4 -33 -5.5 -51t-1.5 -27q0 -94 41.5 -143t120.5 -49q122 0 279 126 t329 363l9 -8q-190 -271 -381.5 -407t-382.5 -136q-126 0 -197.5 65t-71.5 177q0 8 1 20t3 37q-84 -138 -189.5 -216t-203.5 -78q-86 0 -140 59.5t-54 155.5zM-229 174q0 -49 23 -77.5t63 -28.5q42 0 88 34.5t102 110.5q75 100 121.5 210t46.5 179q0 53 -19 82t-55 29 q-48 0 -97.5 -36.5t-111.5 -117.5q-72 -96 -116.5 -204t-44.5 -181zM367 324q156 34 251 128.5t95 209.5q0 24 -11.5 38.5t-29.5 14.5q-69 0 -163 -114t-142 -277z" />
<glyph unicode="&#xe7;" horiz-adv-x="870" d="M-576 -532q144 13 223.5 63.5t79.5 126.5q0 41 -28.5 64.5t-77.5 23.5q-8 0 -18 -1.5t-25 -4.5l162 254h22l-76 -117h13h22q68 0 108 -38.5t40 -104.5q0 -116 -121 -193.5t-324 -89.5v17zM-477 213q0 113 67.5 218.5t192.5 184.5q85 55 184.5 85t192.5 30q89 0 138.5 -33 t49.5 -92q0 -69 -57.5 -116.5t-145.5 -47.5q-10 0 -18 0.5t-16 1.5q3 43 4.5 72.5t1.5 42.5q0 76 -12.5 107.5t-41.5 31.5q-26 0 -60 -26t-81 -82q-72 -89 -108.5 -179.5t-36.5 -179.5q0 -88 45 -138t125 -50q119 0 269 120.5t331 360.5l10 -10q-192 -268 -381.5 -403.5 t-374.5 -135.5q-125 0 -201.5 65.5t-76.5 172.5z" />
<glyph unicode="&#xe8;" horiz-adv-x="870" d="M-477 223q0 89 49.5 180.5t138.5 165.5q93 78 211 122t232 44q79 0 125.5 -34t46.5 -93q0 -96 -122 -164.5t-421 -136.5q-1 -13 -4 -36q-4 -38 -4 -50q0 -87 43 -135.5t119 -48.5q121 0 278 126t330 363l10 -8q-192 -272 -382.5 -407.5t-381.5 -135.5q-126 0 -197 66 t-71 182zM-213 324q156 34 251 128.5t95 209.5q0 23 -12 38t-31 15q-67 0 -161.5 -115t-141.5 -276zM57 1239h204q2 -36 2.5 -69t0.5 -68q0 -63 -3.5 -130.5t-10.5 -139.5l-21 -3q-31 118 -74.5 221t-97.5 189z" />
<glyph unicode="&#xe9;" horiz-adv-x="870" d="M-477 223q0 89 49.5 180.5t138.5 165.5q93 78 211 122t232 44q79 0 125.5 -34t46.5 -93q0 -96 -122 -164.5t-421 -136.5q-1 -13 -4 -36q-4 -38 -4 -50q0 -87 43 -135.5t119 -48.5q121 0 278 126t330 363l10 -8q-192 -272 -382.5 -407.5t-381.5 -135.5q-126 0 -197 66 t-71 182zM-213 324q156 34 251 128.5t95 209.5q0 23 -12 38t-31 15q-67 0 -161.5 -115t-141.5 -276zM63 834q52 96 107.5 190t115.5 186l273 4q-136 -103 -255.5 -199.5t-221.5 -185.5z" />
<glyph unicode="&#xea;" horiz-adv-x="870" d="M-477 223q0 89 49.5 180.5t138.5 165.5q93 78 211 122t232 44q79 0 125.5 -34t46.5 -93q0 -96 -122 -164.5t-421 -136.5q-1 -13 -4 -36q-4 -38 -4 -50q0 -87 43 -135.5t119 -48.5q121 0 278 126t330 363l10 -8q-192 -272 -382.5 -407.5t-381.5 -135.5q-126 0 -197 66 t-71 182zM-213 324q156 34 251 128.5t95 209.5q0 23 -12 38t-31 15q-67 0 -161.5 -115t-141.5 -276zM-150 852l398 430l151 2q-24 -52 -35.5 -97t-11.5 -89q0 -73 25 -132t73 -98l-4 -14q-114 27 -176 94t-63 164q-88 -64 -173.5 -132.5t-170.5 -141.5z" />
<glyph unicode="&#xeb;" horiz-adv-x="870" d="M-477 223q0 89 49.5 180.5t138.5 165.5q93 78 211 122t232 44q79 0 125.5 -34t46.5 -93q0 -96 -122 -164.5t-421 -136.5q-1 -13 -4 -36q-4 -38 -4 -50q0 -87 43 -135.5t119 -48.5q121 0 278 126t330 363l10 -8q-192 -272 -382.5 -407.5t-381.5 -135.5q-126 0 -197 66 t-71 182zM-213 324q156 34 251 128.5t95 209.5q0 23 -12 38t-31 15q-67 0 -161.5 -115t-141.5 -276zM-86 1022q0 41 32.5 73.5t73.5 32.5q44 0 76.5 -32t32.5 -74q0 -47 -31 -79t-78 -32q-44 0 -75 32.5t-31 78.5zM311 1022q0 41 32.5 73.5t74.5 32.5q43 0 75.5 -32 t32.5 -74q0 -47 -31 -79t-77 -32q-45 0 -76 32.5t-31 78.5z" />
<glyph unicode="&#xec;" horiz-adv-x="588" d="M-479 156q0 50 22 117t62 137l166 292l274 11l-3 -5q-323 -526 -323 -618q0 -24 15.5 -38.5t40.5 -14.5q68 0 204 135t287 358l10 -8q-174 -262 -329.5 -401t-272.5 -139q-71 0 -112 46t-41 128zM-84 1239h204q2 -36 2.5 -69t0.5 -68q0 -63 -3.5 -130.5t-10.5 -139.5 l-21 -3q-31 118 -74.5 221t-97.5 189z" />
<glyph unicode="&#xed;" horiz-adv-x="588" d="M-479 156q0 50 22 117t62 137l166 292l274 11l-3 -5q-323 -526 -323 -618q0 -24 15.5 -38.5t40.5 -14.5q68 0 204 135t287 358l10 -8q-174 -262 -329.5 -401t-272.5 -139q-71 0 -112 46t-41 128zM-78 834q52 96 107.5 190t115.5 186l273 4q-136 -103 -255.5 -199.5 t-221.5 -185.5z" />
<glyph unicode="&#xee;" horiz-adv-x="588" d="M-479 156q0 50 22 117t62 137l166 292l274 11l-3 -5q-323 -526 -323 -618q0 -24 15.5 -38.5t40.5 -14.5q68 0 204 135t287 358l10 -8q-174 -262 -329.5 -401t-272.5 -139q-71 0 -112 46t-41 128zM-291 852l398 430l151 2q-24 -52 -35.5 -97t-11.5 -89q0 -73 25 -132 t73 -98l-4 -14q-114 27 -176 94t-63 164q-88 -64 -173.5 -132.5t-170.5 -141.5z" />
<glyph unicode="&#xef;" horiz-adv-x="588" d="M-479 156q0 50 22 117t62 137l166 292l274 11l-3 -5q-323 -526 -323 -618q0 -24 15.5 -38.5t40.5 -14.5q68 0 204 135t287 358l10 -8q-174 -262 -329.5 -401t-272.5 -139q-71 0 -112 46t-41 128zM-227 1022q0 41 32.5 73.5t73.5 32.5q44 0 76.5 -32t32.5 -74 q0 -47 -31 -79t-78 -32q-44 0 -75 32.5t-31 78.5zM170 1022q0 41 32.5 73.5t74.5 32.5q43 0 75.5 -32t32.5 -74q0 -47 -31 -79t-77 -32q-45 0 -76 32.5t-31 78.5z" />
<glyph unicode="&#xf0;" horiz-adv-x="1139" d="M-506 1284q100 62 198 91.5t206 29.5q161 0 279 -38.5t190 -115.5l280 146l10 -21l-274 -145q71 -86 105 -192.5t34 -243.5q0 -199 -80 -373t-237 -318q166 54 313 155t313 278l11 -7q-163 -181 -320 -286t-348 -164q-72 -55 -151 -82t-170 -27q-138 0 -218.5 72 t-80.5 195q0 90 44 178t128 164q83 74 188.5 115.5t210.5 41.5q51 0 89.5 -15t59.5 -44v35q0 128 -22 231t-68 189l-338 -179l-10 23l336 172q-71 97 -166.5 144.5t-218.5 47.5q-81 0 -150.5 -18t-132.5 -55zM-233 109q0 -57 22 -88t61 -31q48 0 104 44.5t116 129.5 q76 108 124 232t48 208q0 53 -20.5 82t-57.5 29q-42 0 -96 -39.5t-111 -112.5q-85 -109 -137.5 -238t-52.5 -216z" />
<glyph unicode="&#xf1;" horiz-adv-x="1100" d="M-621 2l404 709l278 10l-282 -408l18 -10q164 225 295.5 333.5t239.5 108.5q72 0 121 -45t49 -112q0 -81 -112 -242q-25 -36 -38 -55q-54 -83 -81 -134.5t-27 -72.5q0 -20 12 -34.5t29 -14.5q71 0 190.5 121t310.5 389l15 -8q-219 -308 -353 -432.5t-241 -124.5 q-75 0 -119.5 48t-44.5 130q0 56 23.5 113t89.5 151q19 28 55 73q72 93 72 134q0 22 -18.5 37.5t-45.5 15.5q-88 0 -253 -189t-312 -477zM-22 893q22 125 61.5 178t108.5 53q41 0 140.5 -40t156.5 -40q51 0 78.5 20.5t64.5 88.5l24 -8q-49 -147 -90 -193.5t-108 -46.5 q-52 0 -155 45t-150 45q-43 0 -70.5 -27t-38.5 -79z" />
<glyph unicode="&#xf2;" horiz-adv-x="1100" d="M-455 246q0 97 43 186t125 162q85 74 190 115t210 41q110 0 179 -40t114 -128q53 -105 91.5 -136.5t94.5 -31.5q50 0 95 28t93 90l13 -6q-53 -66 -101 -95.5t-104 -29.5q-55 0 -96.5 29t-77.5 94q3 -27 4.5 -44t1.5 -25q0 -87 -48 -180.5t-130 -165.5q-75 -66 -182 -100 t-238 -34q-129 0 -203 72.5t-74 198.5zM-248 106q0 -59 20 -85.5t64 -26.5q43 0 94 36t99 101q33 44 63.5 98t61.5 125q39 93 58 158.5t19 105.5q0 54 -21.5 82.5t-62.5 28.5t-97.5 -45t-110.5 -123q-89 -127 -138 -246.5t-49 -208.5zM172 1239h204q2 -36 2.5 -69t0.5 -68 q0 -63 -3.5 -130.5t-10.5 -139.5l-21 -3q-31 118 -74.5 221t-97.5 189z" />
<glyph unicode="&#xf3;" horiz-adv-x="1100" d="M-455 246q0 97 43 186t125 162q85 74 190 115t210 41q110 0 179 -40t114 -128q53 -105 91.5 -136.5t94.5 -31.5q50 0 95 28t93 90l13 -6q-53 -66 -101 -95.5t-104 -29.5q-55 0 -96.5 29t-77.5 94q3 -27 4.5 -44t1.5 -25q0 -87 -48 -180.5t-130 -165.5q-75 -66 -182 -100 t-238 -34q-129 0 -203 72.5t-74 198.5zM-248 106q0 -59 20 -85.5t64 -26.5q43 0 94 36t99 101q33 44 63.5 98t61.5 125q39 93 58 158.5t19 105.5q0 54 -21.5 82.5t-62.5 28.5t-97.5 -45t-110.5 -123q-89 -127 -138 -246.5t-49 -208.5zM178 834q52 96 107.5 190t115.5 186 l273 4q-136 -103 -255.5 -199.5t-221.5 -185.5z" />
<glyph unicode="&#xf4;" horiz-adv-x="1100" d="M-455 246q0 97 43 186t125 162q85 74 190 115t210 41q110 0 179 -40t114 -128q53 -105 91.5 -136.5t94.5 -31.5q50 0 95 28t93 90l13 -6q-53 -66 -101 -95.5t-104 -29.5q-55 0 -96.5 29t-77.5 94q3 -27 4.5 -44t1.5 -25q0 -87 -48 -180.5t-130 -165.5q-75 -66 -182 -100 t-238 -34q-129 0 -203 72.5t-74 198.5zM-248 106q0 -59 20 -85.5t64 -26.5q43 0 94 36t99 101q33 44 63.5 98t61.5 125q39 93 58 158.5t19 105.5q0 54 -21.5 82.5t-62.5 28.5t-97.5 -45t-110.5 -123q-89 -127 -138 -246.5t-49 -208.5zM-35 852l398 430l151 2 q-24 -52 -35.5 -97t-11.5 -89q0 -73 25 -132t73 -98l-4 -14q-114 27 -176 94t-63 164q-88 -64 -173.5 -132.5t-170.5 -141.5z" />
<glyph unicode="&#xf5;" horiz-adv-x="1100" d="M-455 246q0 97 43 186t125 162q85 74 190 115t210 41q110 0 179 -40t114 -128q53 -105 91.5 -136.5t94.5 -31.5q50 0 95 28t93 90l13 -6q-53 -66 -101 -95.5t-104 -29.5q-55 0 -96.5 29t-77.5 94q3 -27 4.5 -44t1.5 -25q0 -87 -48 -180.5t-130 -165.5q-75 -66 -182 -100 t-238 -34q-129 0 -203 72.5t-74 198.5zM-248 106q0 -59 20 -85.5t64 -26.5q43 0 94 36t99 101q33 44 63.5 98t61.5 125q39 93 58 158.5t19 105.5q0 54 -21.5 82.5t-62.5 28.5t-97.5 -45t-110.5 -123q-89 -127 -138 -246.5t-49 -208.5zM-22 893q22 125 61.5 178t108.5 53 q41 0 140.5 -40t156.5 -40q51 0 78.5 20.5t64.5 88.5l24 -8q-49 -147 -90 -193.5t-108 -46.5q-52 0 -155 45t-150 45q-43 0 -70.5 -27t-38.5 -79z" />
<glyph unicode="&#xf6;" horiz-adv-x="1100" d="M-455 246q0 97 43 186t125 162q85 74 190 115t210 41q110 0 179 -40t114 -128q53 -105 91.5 -136.5t94.5 -31.5q50 0 95 28t93 90l13 -6q-53 -66 -101 -95.5t-104 -29.5q-55 0 -96.5 29t-77.5 94q3 -27 4.5 -44t1.5 -25q0 -87 -48 -180.5t-130 -165.5q-75 -66 -182 -100 t-238 -34q-129 0 -203 72.5t-74 198.5zM-248 106q0 -59 20 -85.5t64 -26.5q43 0 94 36t99 101q33 44 63.5 98t61.5 125q39 93 58 158.5t19 105.5q0 54 -21.5 82.5t-62.5 28.5t-97.5 -45t-110.5 -123q-89 -127 -138 -246.5t-49 -208.5zM29 1022q0 41 32.5 73.5t73.5 32.5 q44 0 76.5 -32t32.5 -74q0 -47 -31 -79t-78 -32q-44 0 -75 32.5t-31 78.5zM426 1022q0 41 32.5 73.5t74.5 32.5q43 0 75.5 -32t32.5 -74q0 -47 -31 -79t-77 -32q-45 0 -76 32.5t-31 78.5z" />
<glyph unicode="&#xf7;" horiz-adv-x="1706" d="M254 528v166h1198v-166h-1198zM717 229q0 57 40.5 97.5t96.5 40.5q57 0 97 -40.5t40 -97.5q0 -56 -39.5 -95.5t-97.5 -39.5t-97.5 39t-39.5 96zM717 989q0 57 40.5 98t96.5 41q57 0 97 -41t40 -98q0 -56 -39.5 -95.5t-97.5 -39.5t-97.5 39t-39.5 96z" />
<glyph unicode="&#xf8;" horiz-adv-x="1100" d="M-455 246q0 97 43 186t125 162q83 74 188 115t212 41q20 0 57 -4q15 -2 23 -3l69 123l19 -8l-68 -119q63 -16 105 -47.5t77 -91.5q4 -6 26.5 -51t45.5 -74q26 -31 57 -46t68 -15q50 0 95 28t93 90l13 -6q-53 -66 -101 -95.5t-104 -29.5q-55 0 -96.5 29t-77.5 94 q3 -27 4.5 -44t1.5 -25q0 -87 -47.5 -179.5t-130.5 -166.5q-70 -61 -176 -97.5t-211 -36.5q-17 0 -36 2t-38 5l-96 -168l-19 10l90 158q-97 14 -154 85t-57 179zM-248 100q0 -31 5 -50.5t16 -32.5l405 706q-9 3 -17 4.5t-16 1.5q-40 0 -97 -45t-109 -121 q-92 -131 -139.5 -249.5t-47.5 -213.5zM-209 2q18 -5 26.5 -6.5t16.5 -1.5q45 0 95 35t98 100q36 49 68 106t59 121q39 91 58 156.5t19 108.5q0 36 -12 63t-20 27z" />
<glyph unicode="&#xf9;" horiz-adv-x="1108" d="M-498 141q0 51 22.5 111t86.5 170l164 280l274 11l-252 -412q-40 -64 -64 -122.5t-24 -86.5q0 -22 13 -37.5t32 -15.5q76 0 189.5 117.5t230.5 322.5l125 219l276 13l-264 -447q-44 -73 -61 -115t-17 -73q0 -21 13 -36t33 -15q68 0 204.5 134.5t296.5 364.5l13 -8 q-211 -296 -349 -418.5t-258 -122.5q-69 0 -114 46.5t-45 119.5q0 22 4.5 44t13.5 46l-8 9q-104 -128 -201.5 -195.5t-179.5 -67.5q-72 0 -113 44t-41 120zM176 1239h204q2 -36 2.5 -69t0.5 -68q0 -63 -3.5 -130.5t-10.5 -139.5l-21 -3q-31 118 -74.5 221t-97.5 189z" />
<glyph unicode="&#xfa;" horiz-adv-x="1108" d="M-498 141q0 51 22.5 111t86.5 170l164 280l274 11l-252 -412q-40 -64 -64 -122.5t-24 -86.5q0 -22 13 -37.5t32 -15.5q76 0 189.5 117.5t230.5 322.5l125 219l276 13l-264 -447q-44 -73 -61 -115t-17 -73q0 -21 13 -36t33 -15q68 0 204.5 134.5t296.5 364.5l13 -8 q-211 -296 -349 -418.5t-258 -122.5q-69 0 -114 46.5t-45 119.5q0 22 4.5 44t13.5 46l-8 9q-104 -128 -201.5 -195.5t-179.5 -67.5q-72 0 -113 44t-41 120zM182 834q52 96 107.5 190t115.5 186l273 4q-136 -103 -255.5 -199.5t-221.5 -185.5z" />
<glyph unicode="&#xfb;" horiz-adv-x="1108" d="M-498 141q0 51 22.5 111t86.5 170l164 280l274 11l-252 -412q-40 -64 -64 -122.5t-24 -86.5q0 -22 13 -37.5t32 -15.5q76 0 189.5 117.5t230.5 322.5l125 219l276 13l-264 -447q-44 -73 -61 -115t-17 -73q0 -21 13 -36t33 -15q68 0 204.5 134.5t296.5 364.5l13 -8 q-211 -296 -349 -418.5t-258 -122.5q-69 0 -114 46.5t-45 119.5q0 22 4.5 44t13.5 46l-8 9q-104 -128 -201.5 -195.5t-179.5 -67.5q-72 0 -113 44t-41 120zM-31 852l398 430l151 2q-24 -52 -35.5 -97t-11.5 -89q0 -73 25 -132t73 -98l-4 -14q-114 27 -176 94t-63 164 q-88 -64 -173.5 -132.5t-170.5 -141.5z" />
<glyph unicode="&#xfc;" horiz-adv-x="1108" d="M-498 141q0 51 22.5 111t86.5 170l164 280l274 11l-252 -412q-40 -64 -64 -122.5t-24 -86.5q0 -22 13 -37.5t32 -15.5q76 0 189.5 117.5t230.5 322.5l125 219l276 13l-264 -447q-44 -73 -61 -115t-17 -73q0 -21 13 -36t33 -15q68 0 204.5 134.5t296.5 364.5l13 -8 q-211 -296 -349 -418.5t-258 -122.5q-69 0 -114 46.5t-45 119.5q0 22 4.5 44t13.5 46l-8 9q-104 -128 -201.5 -195.5t-179.5 -67.5q-72 0 -113 44t-41 120zM33 1022q0 41 32.5 73.5t73.5 32.5q44 0 76.5 -32t32.5 -74q0 -47 -31 -79t-78 -32q-44 0 -75 32.5t-31 78.5z M430 1022q0 41 32.5 73.5t74.5 32.5q43 0 75.5 -32t32.5 -74q0 -47 -31 -79t-77 -32q-45 0 -76 32.5t-31 78.5z" />
<glyph unicode="&#xfd;" horiz-adv-x="1096" d="M-1176 -348q0 111 95.5 177.5t257.5 66.5q32 0 64 -3.5t65 -9.5l-3 -14q-10 1 -21.5 1.5t-29.5 0.5q-92 0 -146 -60t-54 -163q0 -107 64.5 -177.5t160.5 -70.5q94 0 190.5 62t198.5 190q46 57 187.5 274t220.5 334l-15 10q-106 -141 -210.5 -217t-192.5 -76 q-72 0 -113 44t-41 120q0 51 22.5 111t86.5 170l162 280l276 11l-252 -412q-40 -64 -64 -122.5t-24 -86.5q0 -22 13 -37.5t32 -15.5q77 0 192.5 120.5t223.5 319.5l121 223l276 11l-395 -678q153 59 302 182t294 309l12 -6q-144 -192 -301 -321t-319 -187 q-168 -314 -406.5 -474.5t-537.5 -160.5q-180 0 -286 75t-106 200zM176 834q52 96 107.5 190t115.5 186l273 4q-136 -103 -255.5 -199.5t-221.5 -185.5z" />
<glyph unicode="&#xfe;" horiz-adv-x="1100" d="M-1014 -623l1182 1987l276 18l-469 -755q-11 -19 -89 -131q-52 -74 -85 -121l17 -10q127 187 238.5 278.5t213.5 91.5q85 0 136 -60t51 -161q0 -75 -31 -145.5t-100 -153.5q124 33 240 114t214 206l13 -11q-106 -133 -231.5 -217t-266.5 -117q-113 -97 -224.5 -146.5 t-217.5 -49.5q-48 0 -75.5 18t-27.5 49q0 48 54 73.5t268 53.5q69 103 103 190.5t34 162.5q0 47 -22 74.5t-60 27.5q-66 0 -172 -118.5t-229 -329.5l-476 -813zM-164 43q0 -15 11.5 -27t25.5 -12q27 0 76 43.5t110 122.5q-102 -7 -162.5 -42t-60.5 -85z" />
<glyph unicode="&#xff;" horiz-adv-x="1096" d="M-1176 -348q0 111 95.5 177.5t257.5 66.5q32 0 64 -3.5t65 -9.5l-3 -14q-10 1 -21.5 1.5t-29.5 0.5q-92 0 -146 -60t-54 -163q0 -107 64.5 -177.5t160.5 -70.5q94 0 190.5 62t198.5 190q46 57 187.5 274t220.5 334l-15 10q-106 -141 -210.5 -217t-192.5 -76 q-72 0 -113 44t-41 120q0 51 22.5 111t86.5 170l162 280l276 11l-252 -412q-40 -64 -64 -122.5t-24 -86.5q0 -22 13 -37.5t32 -15.5q77 0 192.5 120.5t223.5 319.5l121 223l276 11l-395 -678q153 59 302 182t294 309l12 -6q-144 -192 -301 -321t-319 -187 q-168 -314 -406.5 -474.5t-537.5 -160.5q-180 0 -286 75t-106 200zM27 1022q0 41 32.5 73.5t73.5 32.5q44 0 76.5 -32t32.5 -74q0 -47 -31 -79t-78 -32q-44 0 -75 32.5t-31 78.5zM424 1022q0 41 32.5 73.5t74.5 32.5q43 0 75.5 -32t32.5 -74q0 -47 -31 -79t-77 -32 q-45 0 -76 32.5t-31 78.5z" />
<glyph unicode="&#x152;" horiz-adv-x="2048" d="M-334 385q0 164 79.5 326t229.5 303q139 131 291.5 206.5t274.5 75.5q87 0 135.5 -45t48.5 -127q0 -37 -12 -72t-37 -71l-10 6q24 41 35.5 74.5t11.5 64.5q0 69 -42.5 109.5t-115.5 40.5q-93 0 -195 -68.5t-200 -195.5q-107 -140 -168.5 -311.5t-61.5 -327.5 q0 -168 65 -256t189 -88q45 0 87.5 13.5t86.5 41.5q-41 43 -61.5 92.5t-20.5 108.5q0 94 48.5 170t148.5 139q33 21 95 52q121 60 159 124q42 72 62 226q8 61 14 89q8 44 23 76.5t38 59.5q-44 102 -124.5 157.5t-184.5 55.5q-130 0 -246.5 -61.5t-222.5 -186.5l-10 10 q104 125 231 191.5t262 66.5q120 0 208 -43.5t145 -130.5q90 72 186 108.5t195 36.5q136 0 219.5 -62.5t83.5 -164.5q0 -121 -109.5 -203t-271.5 -82q-35 0 -67.5 5.5t-63.5 15.5l-2 16q24 -9 49 -13.5t51 -4.5q104 0 164.5 72.5t60.5 197.5q0 84 -46.5 142.5t-113.5 58.5 q-46 0 -89 -31.5t-74 -87.5q-44 -78 -80 -260q-15 -76 -25 -115q-50 -210 -158.5 -383.5t-277.5 -312.5q38 -93 134.5 -149t219.5 -56q170 0 280.5 107t110.5 268q0 87 -53 143t-133 56q-79 0 -142.5 -61t-99.5 -173l-16 -2q43 150 146.5 240t232.5 90q114 0 188 -66.5 t74 -169.5q0 -88 -62.5 -174t-179.5 -160q-115 -71 -248 -109t-270 -38q-121 0 -209.5 27.5t-156.5 85.5q-89 -53 -173 -80t-159 -27q-165 0 -268 116t-103 304zM518 377q0 -32 6 -69t19 -79q135 107 229 255t137 323q-207 -79 -299 -181t-92 -249z" />
<glyph unicode="&#x153;" horiz-adv-x="1479" d="M-434 246q0 98 42.5 187.5t125.5 162.5q83 74 189 116t210 42q94 0 160.5 -31.5t103.5 -93.5q94 53 185.5 79.5t179.5 26.5q79 0 124.5 -34t45.5 -93q0 -96 -122 -164.5t-421 -136.5q0 -7 -1 -18.5t-1 -16.5q0 -113 42.5 -170t127.5 -57q123 0 282.5 132t321.5 370 l17 -10q-202 -280 -391.5 -422t-362.5 -142q-73 0 -129.5 26t-99.5 79q-70 -53 -156.5 -81t-179.5 -28q-139 0 -216 73t-77 204zM-227 102q0 -59 20.5 -86.5t63.5 -27.5q41 0 91 36.5t99 102.5q33 44 64.5 100t62.5 127q37 87 56.5 156t19.5 113q0 52 -21.5 81t-60.5 29 q-41 0 -96.5 -44t-110.5 -122q-92 -133 -140 -252t-48 -213zM393 324q156 34 251 128.5t95 209.5q0 24 -11 38.5t-30 14.5q-68 0 -162 -114t-143 -277z" />
<glyph unicode="&#x178;" horiz-adv-x="1741" d="M-608 -319q0 112 87.5 178.5t235.5 66.5q46 0 92.5 -9.5t100.5 -29.5l-4 -12q-35 9 -57 12.5t-37 3.5q-80 0 -133.5 -67.5t-53.5 -169.5q0 -108 64 -175t168 -67q97 0 203.5 65.5t203.5 186.5q111 137 431 626l50 77l-8 6q-147 -184 -312 -290t-298 -106q-80 0 -126 47 t-46 130q0 122 226 473l24 37q20 31 59 90q248 379 248 508q0 51 -41 87.5t-98 36.5q-70 0 -142 -34t-133 -97q-69 -70 -110 -164.5t-41 -181.5q0 -74 32 -117.5t86 -43.5q56 0 112 49t99 137h15q-42 -100 -124 -166t-161 -66q-78 0 -124 51t-46 136q0 93 50 184.5 t143 169.5q101 86 209 130t219 44q122 0 196 -62t74 -165q0 -131 -273 -549q-39 -59 -59 -90q-119 -186 -165 -280t-46 -148q0 -36 24 -59t62 -23q56 0 153.5 62.5t201.5 166.5q105 106 274 362t436 718h285q-237 -347 -543.5 -851.5t-408.5 -635.5q-182 -234 -397.5 -351.5 t-461.5 -117.5q-191 0 -303 77.5t-112 209.5zM991 1663q0 41 32.5 73.5t73.5 32.5q44 0 76.5 -32t32.5 -74q0 -47 -31 -79t-78 -32q-44 0 -75 32.5t-31 78.5zM1388 1663q0 41 32.5 73.5t74.5 32.5q43 0 75.5 -32t32.5 -74q0 -47 -31 -79t-77 -32q-45 0 -76 32.5t-31 78.5z " />
<glyph unicode="&#x2c6;" d="M-74 852l398 430l151 2q-24 -52 -35.5 -97t-11.5 -89q0 -73 25 -132t73 -98l-4 -14q-114 27 -176 94t-63 164q-88 -64 -173.5 -132.5t-170.5 -141.5z" />
<glyph unicode="&#x2dc;" d="M-61 893q22 125 61.5 178t108.5 53q41 0 140.5 -40t156.5 -40q51 0 78.5 20.5t64.5 88.5l24 -8q-49 -147 -90 -193.5t-108 -46.5q-52 0 -155 45t-150 45q-43 0 -70.5 -27t-38.5 -79z" />
<glyph unicode="&#x2000;" horiz-adv-x="962" />
<glyph unicode="&#x2001;" horiz-adv-x="1925" />
<glyph unicode="&#x2002;" horiz-adv-x="962" />
<glyph unicode="&#x2003;" horiz-adv-x="1925" />
<glyph unicode="&#x2004;" horiz-adv-x="641" />
<glyph unicode="&#x2005;" horiz-adv-x="481" />
<glyph unicode="&#x2006;" horiz-adv-x="320" />
<glyph unicode="&#x2007;" horiz-adv-x="320" />
<glyph unicode="&#x2008;" horiz-adv-x="240" />
<glyph unicode="&#x2009;" horiz-adv-x="385" />
<glyph unicode="&#x200a;" horiz-adv-x="106" />
<glyph unicode="&#x2010;" horiz-adv-x="967" d="M-251 334l103 165q86 -2 156.5 -3.5t126.5 -1.5q43 0 174 2q53 1 82 2l-100 -166q-25 0 -73 1q-160 3 -216 3q-82 0 -139 -0.5t-114 -1.5z" />
<glyph unicode="&#x2011;" horiz-adv-x="967" d="M-251 334l103 165q86 -2 156.5 -3.5t126.5 -1.5q43 0 174 2q53 1 82 2l-100 -166q-25 0 -73 1q-160 3 -216 3q-82 0 -139 -0.5t-114 -1.5z" />
<glyph unicode="&#x2012;" horiz-adv-x="967" d="M-251 334l103 165q86 -2 156.5 -3.5t126.5 -1.5q43 0 174 2q53 1 82 2l-100 -166q-25 0 -73 1q-160 3 -216 3q-82 0 -139 -0.5t-114 -1.5z" />
<glyph unicode="&#x2013;" d="M-348 334l106 157q131 -3 231.5 -4.5t174.5 -1.5q100 0 343 4h38l-103 -157q-100 1 -217.5 2.5t-132.5 1.5q-167 0 -260.5 -0.5t-179.5 -1.5z" />
<glyph unicode="&#x2014;" horiz-adv-x="2048" d="M-414 336l99 160h2003l-99 -160h-2003z" />
<glyph unicode="&#x2018;" horiz-adv-x="455" d="M-186 942q0 147 150 252t388 115l-2 -17q-183 -9 -296.5 -95t-116.5 -216q13 16 29.5 23.5t35.5 7.5q44 0 71 -29t27 -76q0 -59 -39 -97t-100 -38q-65 0 -106 47.5t-41 122.5z" />
<glyph unicode="&#x2019;" horiz-adv-x="455" d="M-317 739v17q183 9 296.5 95t116.5 216q-14 -16 -29.5 -23.5t-35.5 -7.5q-44 0 -71.5 28.5t-27.5 74.5q0 58 40 97.5t100 39.5q65 0 107 -48t42 -122q0 -147 -150.5 -252t-387.5 -115z" />
<glyph unicode="&#x201a;" horiz-adv-x="455" d="M-655 -279l2 17q182 9 296 95.5t117 215.5q-12 -16 -28.5 -23.5t-38.5 -7.5q-43 0 -69.5 28.5t-26.5 74.5q0 58 39.5 97.5t99.5 39.5q65 0 106 -47t41 -123q0 -147 -150.5 -251.5t-387.5 -115.5z" />
<glyph unicode="&#x201c;" horiz-adv-x="883" d="M-186 942q0 147 150 252t388 115l-2 -17q-183 -9 -296.5 -95t-116.5 -216q13 16 29.5 23.5t35.5 7.5q44 0 71 -29t27 -76q0 -59 -39 -97t-100 -38q-65 0 -106 47.5t-41 122.5zM240 942q0 147 150 252t388 115l-2 -17q-183 -9 -296.5 -95.5t-117.5 -215.5q12 15 29.5 23 t38.5 8q44 0 71 -29t27 -76q0 -59 -39 -97t-100 -38q-65 0 -107 48t-42 122z" />
<glyph unicode="&#x201d;" horiz-adv-x="883" d="M-317 739v17q183 9 296.5 95t116.5 216q-14 -16 -29.5 -23.5t-35.5 -7.5q-44 0 -71.5 28.5t-27.5 74.5q0 58 40 97.5t100 39.5q65 0 107 -48t42 -122q0 -147 -150.5 -252t-387.5 -115zM109 737l2 17q183 9 296.5 95t116.5 215q-13 -15 -29.5 -22.5t-37.5 -7.5 q-44 0 -71.5 28.5t-27.5 74.5q0 59 39.5 98t100.5 39q65 0 107 -48t42 -122q0 -147 -150.5 -252t-387.5 -115z" />
<glyph unicode="&#x201e;" horiz-adv-x="883" d="M-655 -279l2 17q182 9 296 95.5t117 215.5q-12 -16 -28.5 -23.5t-38.5 -7.5q-43 0 -69.5 28.5t-26.5 74.5q0 58 39.5 97.5t99.5 39.5q65 0 106 -47t41 -123q0 -147 -150.5 -251.5t-387.5 -115.5zM-227 -262q183 9 296.5 95t116.5 216q-12 -16 -28 -23.5t-37 -7.5 q-44 0 -71 28.5t-27 74.5q0 59 39 98t100 39q65 0 107 -47.5t42 -122.5q0 -147 -150.5 -251.5t-387.5 -115.5v17z" />
<glyph unicode="&#x2022;" horiz-adv-x="1208" d="M307 762q0 123 87 209t210 86q122 0 208.5 -86.5t86.5 -208.5t-87.5 -209.5t-209.5 -87.5q-123 0 -209 87t-86 210z" />
<glyph unicode="&#x2026;" horiz-adv-x="2048" d="M-369 131q0 60 44 105t104 45q62 0 105.5 -44t43.5 -106q0 -61 -43.5 -104t-105.5 -43q-60 0 -104 43.5t-44 103.5zM313 131q0 61 44.5 105.5t105.5 44.5t104 -44t43 -106q0 -61 -43 -104t-104 -43t-105.5 44t-44.5 103zM997 131q0 61 43.5 105.5t104.5 44.5t104 -44 t43 -106q0 -61 -43 -104t-104 -43q-60 0 -104 43.5t-44 103.5z" />
<glyph unicode="&#x202f;" horiz-adv-x="385" />
<glyph unicode="&#x2039;" horiz-adv-x="682" d="M-348 319l463 349l10 -15l-275 -334l74 -321l-12 -10z" />
<glyph unicode="&#x203a;" horiz-adv-x="682" d="M-414 2l273 334l-72 321l10 11l260 -332l-463 -348z" />
<glyph unicode="&#x205f;" horiz-adv-x="481" />
<glyph unicode="&#x20ac;" horiz-adv-x="1176" d="M-375 623l15 22h143q14 34 26.5 59.5t24.5 47.5h-129l16 22h125q51 88 119 170.5t148 155.5q171 157 347.5 235t360.5 78q113 0 180.5 -59.5t67.5 -159.5q0 -127 -106.5 -226.5t-243.5 -99.5q-91 0 -147 52t-56 135q0 49 19 93t55 77l10 -8q-33 -36 -49 -76t-16 -84 q0 -66 38 -108t97 -42q50 0 95 30t87 91q35 53 55.5 114.5t20.5 114.5q0 64 -32 100t-89 36q-97 0 -210 -57.5t-222 -161.5q-90 -88 -164 -189t-127 -211h598l-14 -22h-596q-11 -24 -22 -50.5t-21 -56.5h569l-16 -22h-562q-25 -78 -38 -152.5t-13 -142.5q0 -154 59 -244 t158 -90q94 0 169 65t116 179q17 44 25 85t8 83q0 29 -4.5 62t-13.5 70q75 -29 116 -86.5t41 -132.5q0 -20 -3 -40.5t-9 -42.5q-36 -126 -168 -202.5t-305 -76.5q-190 0 -313.5 114t-123.5 298q0 58 13 121.5t39 132.5h-148z" />
<glyph unicode="&#x2122;" horiz-adv-x="1683" d="M233 1260l11 188h448l10 -188h-30q-8 80 -40 116.5t-93 36.5h-11v-422q0 -23 10.5 -37t28.5 -16l31 -4v-29h-260v29l32 4q19 2 28.5 15.5t9.5 37.5v422h-15q-59 0 -91 -37.5t-40 -115.5h-29zM770 905v29l33 4q20 2 30.5 15t10.5 36v373q0 23 -11 37t-30 16l-33 2v31h199 l135 -381l137 381h189v-27l-28 -2q-19 -3 -29.5 -16.5t-10.5 -36.5v-375q0 -23 10.5 -36.5t30.5 -16.5l27 -4v-29h-246v29l30 4q20 2 29.5 15.5t9.5 37.5v375l-163 -463h-27l-170 469v-381q0 -24 10 -38t29 -15l35 -4v-29h-197z" />
<glyph unicode="&#x25fc;" horiz-adv-x="720" d="M0 0v720h720v-720h-720z" />
</font>
</defs>
</svg>
