<?xml version="1.0" encoding="utf-8"?>
<!-- Generator: Adobe Illustrator 17.0.0, SVG Export Plug-In . SVG Version: 6.00 Build 0)  -->
<!DOCTYPE svg PUBLIC "-//W3C//DTD SVG 1.1//EN" "http://www.w3.org/Graphics/SVG/1.1/DTD/svg11.dtd">
<svg version="1.1" id="Layer_1" xmlns="http://www.w3.org/2000/svg" xmlns:xlink="http://www.w3.org/1999/xlink" x="0px" y="0px"
	 width="30px" height="32px" viewBox="0 0 30 32" enable-background="new 0 0 30 32" xml:space="preserve">
<g>
	<path fill="#000000" d="M16.429,0.049c0.964,0.695,1.789,1.542,2.468,2.538s1.021,2.054,1.021,3.17v0.092
		c-0.032,0.032-0.047,0.076-0.047,0.136v0.363c-0.028,0.028-0.044,0.092-0.044,0.18V6.8c-0.06,0.243-0.136,0.424-0.228,0.544
		c-0.06,0.272-0.136,0.471-0.224,0.591l-0.544,1.223c0,0.028-0.016,0.06-0.047,0.088c-0.12,0.123-0.18,0.243-0.18,0.363
		l-4.305,3.805l4.393,7.431l5.439-4.441c0.028,0.063,0.076,0.092,0.136,0.092h0.088c0,0.032,0.032,0.044,0.092,0.044h0.092
		c0,0.032,0.028,0.047,0.092,0.047l0.136,0.136c0.392,0.392,0.8,0.708,1.223,0.951c0.18,0.092,0.616,0.256,1.312,0.499h0.136
		c0.032,0.028,0.076,0.044,0.136,0.044h0.363c0.092,0,0.512-0.076,1.267-0.228h0.092c0.032,0,0.06-0.013,0.092-0.044h0.088
		c0.032,0,0.063-0.016,0.092-0.044h0.092c-0.183,0.967-0.619,1.719-1.315,2.263c-0.787,0.607-1.539,0.967-2.266,1.087h-0.18
		c-0.032,0.032-0.092,0.047-0.18,0.047h-0.363c-1.271,0-2.266-0.408-2.99-1.223h-0.183l-0.044-0.047h-0.228l-0.044-0.044h-0.092
		l-2.446,1.947c0.515,1.451,1.299,2.645,2.358,3.581c1.176,1.059,2.491,1.587,3.941,1.587c0.212,0,0.392-0.016,0.544-0.047
		c0.152-0.028,0.363-0.073,0.635-0.136c0.088,0,0.224-0.028,0.408-0.088c0.06,0,0.18-0.032,0.36-0.092
		c0.424-0.3,1.059-0.771,1.903-1.403v0.272c0,1.511-0.588,2.762-1.767,3.761c-1.056,0.875-2.386,1.419-3.986,1.631h-0.272
		c-0.032,0.028-0.123,0.044-0.272,0.044h-0.455c0.06,0-0.408-0.044-1.403-0.136c-0.303-0.06-0.711-0.18-1.223-0.363
		c-1.299-0.692-2.63-1.979-3.989-3.85c-0.24-0.332-0.408-0.575-0.496-0.727c0-0.06-0.032-0.126-0.092-0.202
		c-0.06-0.076-0.107-0.136-0.136-0.183c-0.032-0.044-0.07-0.104-0.114-0.18c-0.044-0.076-0.098-0.126-0.158-0.158l-8.518,6.615
		l-6.255-9.333l8.973-7.115L4.829,7.256l0.452-1.498c1.207-0.692,3.037-1.691,5.484-2.99c1.903-0.964,3.79-1.843,5.664-2.626V0.049z
		 M9.994,16.813l-4.804,3.809l4.804,7.247h0.363l4.121-3.486L9.994,16.813z M12.532,3.583c-0.667,0.152-1.239,0.461-1.723,0.929
		c-0.484,0.471-0.724,1.021-0.724,1.656v0.316h0.044V6.62l0.044,0.044v0.047l3.265,5.528c0.815-0.303,1.501-0.885,2.061-1.745
		c0.559-0.863,0.838-1.685,0.838-2.472V7.616c-0.032-0.028-0.044-0.088-0.044-0.18V7.208c-0.032-0.028-0.047-0.104-0.047-0.224
		c-0.06-0.332-0.136-0.607-0.224-0.815c-0.092-0.212-0.243-0.499-0.455-0.863c-0.36-0.484-0.844-0.92-1.448-1.315
		c-0.032,0-0.076-0.013-0.136-0.044h-0.136c-0.032,0-0.063-0.006-0.092-0.022c-0.032-0.016-0.044-0.038-0.044-0.07
		c-0.032,0-0.063,0-0.092,0h-0.044c-0.032,0-0.047-0.013-0.047-0.044c-0.088,0-0.224-0.028-0.408-0.092
		c-0.028,0-0.092-0.013-0.18-0.044h-0.136L12.532,3.583z"/>
</g>
</svg>
